<svg width="18" height="18" viewBox="0 0 18 18" fill="none" xmlns="http://www.w3.org/2000/svg">
<path d="M9 0C4.02991 0 0 4.02991 0 9C0 13.9701 4.02991 18 9 18C13.9701 18 18 13.9701 18 9C18 4.02991 13.9701 0 9 0ZM9 14.2232C8.55603 14.2232 8.19643 13.8636 8.19643 13.4196C8.19643 12.9757 8.55603 12.6161 9 12.6161C9.44397 12.6161 9.80357 12.9757 9.80357 13.4196C9.80357 13.8636 9.44397 14.2232 9 14.2232ZM10.2636 9.81362C10.0817 9.88387 9.92514 10.0073 9.81441 10.1679C9.70368 10.3284 9.6439 10.5186 9.64286 10.7136V11.1696C9.64286 11.258 9.57054 11.3304 9.48214 11.3304H8.51786C8.42946 11.3304 8.35714 11.258 8.35714 11.1696V10.7377C8.35714 10.2737 8.49174 9.81562 8.75692 9.43393C9.01607 9.06027 9.37768 8.775 9.80357 8.61228C10.4866 8.34911 10.9286 7.77656 10.9286 7.15179C10.9286 6.26585 10.0627 5.54464 9 5.54464C7.93728 5.54464 7.07143 6.26585 7.07143 7.15179V7.30446C7.07143 7.39286 6.99911 7.46518 6.91071 7.46518H5.94643C5.85804 7.46518 5.78571 7.39286 5.78571 7.30446V7.15179C5.78571 6.36228 6.13125 5.625 6.75804 5.07656C7.36071 4.54821 8.15625 4.25893 9 4.25893C9.84375 4.25893 10.6393 4.55022 11.242 5.07656C11.8687 5.625 12.2143 6.36228 12.2143 7.15179C12.2143 8.31295 11.4489 9.35759 10.2636 9.81362Z" fill="white"/>
</svg>
