<svg width="24" height="22" viewBox="0 0 24 22" fill="none" xmlns="http://www.w3.org/2000/svg">
<path d="M19.08 17.0572C18.8672 16.9096 18.5752 16.9627 18.4277 17.1755C18.2849 17.3817 18.123 17.5822 17.9463 17.7716C17.8279 17.8985 17.6651 18.0516 17.4879 18.2024C17.2907 18.3702 17.2669 18.666 17.4347 18.8632C17.5274 18.9722 17.6593 19.0281 17.7919 19.0281C17.8993 19.0281 18.0073 18.9914 18.0955 18.9163C18.3023 18.7404 18.4878 18.5656 18.6319 18.4109C18.8392 18.1888 19.0298 17.9528 19.1984 17.7094C19.3458 17.4966 19.2928 17.2046 19.08 17.0572Z" fill="black"/>
<path d="M17.0378 19.159C16.9278 18.9246 16.6488 18.8237 16.4144 18.9336L16.3997 18.9402C16.1628 19.0447 16.0556 19.3215 16.1602 19.5583C16.2375 19.7336 16.4092 19.8379 16.5892 19.8379C16.6525 19.8379 16.7167 19.825 16.7782 19.7979C16.7897 19.7929 16.801 19.7877 16.8124 19.7824C17.0468 19.6725 17.1477 19.3934 17.0378 19.159Z" fill="black"/>
<path d="M22.5996 0.21875H1.40039C0.628171 0.21875 0 0.847014 0 1.61914V14.7559C0 15.528 0.628171 16.1562 1.40039 16.1562H11.2716C11.69 17.9267 12.6363 19.1806 13.4633 19.9839C14.6704 21.1566 16.0542 21.7812 16.589 21.7812C17.1237 21.7812 18.5075 21.1567 19.7146 19.984C20.5417 19.1806 21.488 17.9267 21.9064 16.1563H22.5996C23.3718 16.1563 24 15.528 24 14.756V1.61914C24 0.847014 23.3718 0.21875 22.5996 0.21875ZM21.1875 14.2352C21.1875 16.7049 20.0475 18.3432 19.091 19.2826C17.9565 20.3969 16.7927 20.8304 16.589 20.8436C16.3852 20.8304 15.2214 20.397 14.0868 19.2826C13.1305 18.3432 11.9905 16.7049 11.9905 14.2352V11.9268C13.6044 11.4601 15.1145 10.8213 16.5891 9.98185C18.0305 10.8 19.6083 11.4671 21.1875 11.9265V14.2352ZM23.0625 14.7559C23.0625 15.0111 22.8548 15.2187 22.5996 15.2187H22.0694C22.1053 14.9046 22.125 14.577 22.125 14.2352V11.5714C22.125 11.3598 21.9833 11.1745 21.7791 11.119C20.0769 10.6568 18.3641 9.93653 16.8258 9.03611C16.6795 8.95051 16.4985 8.95061 16.3521 9.0362C14.7702 9.96217 13.15 10.6434 11.3989 11.119C11.1947 11.1745 11.053 11.3598 11.053 11.5714V14.2352C11.053 14.577 11.0726 14.9046 11.1086 15.2187H1.40039C1.14515 15.2187 0.937498 15.0111 0.937498 14.7559V6.78114H23.0625V14.7559ZM23.0625 5.84369H0.937498V3.96879H23.0625V5.84369ZM23.0625 3.03124H0.937498V1.61914C0.937498 1.3639 1.14515 1.15625 1.40039 1.15625H22.5996C22.8548 1.15625 23.0625 1.3639 23.0625 1.61914V3.03124Z" fill="black"/>
<path d="M5.62486 10.0626C5.34225 10.0626 5.06321 10.1198 4.80493 10.2287C4.5526 10.1218 4.27529 10.0626 3.98448 10.0626C2.82137 10.0626 1.87506 11.0088 1.87506 12.1719C1.87506 13.335 2.82132 14.2813 3.98448 14.2813C4.27529 14.2813 4.5526 14.2221 4.80488 14.1152C5.06321 14.2241 5.34225 14.2813 5.62486 14.2813C6.78802 14.2813 7.73432 13.335 7.73432 12.1719C7.73432 11.0088 6.78802 10.0626 5.62486 10.0626ZM3.98448 13.3438C3.33826 13.3438 2.81256 12.8181 2.81256 12.1719C2.81256 11.5257 3.33826 11.0001 3.98448 11.0001C4.6306 11.0001 5.1563 11.5257 5.1563 12.1719C5.1563 12.8181 4.6306 13.3438 3.98448 13.3438ZM5.74107 13.3381C5.96372 13.0038 6.0938 12.6028 6.0938 12.172C6.0938 11.7411 5.96372 11.3402 5.74111 11.0059C6.33291 11.0644 6.79678 11.5651 6.79678 12.172C6.79678 12.7788 6.33291 13.2795 5.74107 13.3381Z" fill="black"/>
<path d="M4.75479 7.95312H2.34369C2.0848 7.95312 1.87494 8.16298 1.87494 8.42187C1.87494 8.68072 2.0848 8.89062 2.34369 8.89062H4.75479C5.01368 8.89062 5.22354 8.68067 5.22354 8.42187C5.22354 8.16298 5.01368 7.95312 4.75479 7.95312Z" fill="black"/>
<path d="M6.14044 7.95312H6.11822C5.85933 7.95312 5.64948 8.16298 5.64948 8.42187C5.64948 8.68072 5.85933 8.89062 6.11822 8.89062H6.14044C6.39929 8.89062 6.60919 8.68067 6.60919 8.42187C6.60919 8.16298 6.39929 7.95312 6.14044 7.95312Z" fill="black"/>
<path d="M19.162 13.1574C18.979 12.9744 18.6822 12.9744 18.4991 13.1574L15.9924 15.6639L14.6788 14.3502C14.4957 14.1673 14.1989 14.1672 14.0158 14.3502C13.8328 14.5333 13.8327 14.8301 14.0158 15.0132L15.6609 16.6583C15.7525 16.7498 15.8724 16.7956 15.9924 16.7956C16.1123 16.7956 16.2323 16.7498 16.3238 16.6583L19.1619 13.8203C19.345 13.6373 19.345 13.3405 19.162 13.1574Z" fill="black"/>
</svg>
