<svg width="24" height="28" viewBox="0 0 24 28" fill="none" xmlns="http://www.w3.org/2000/svg">
<path d="M23.4453 4.83498C19.5928 3.77941 15.7177 2.13578 12.2389 0.081826C12.0541 -0.0272753 11.8248 -0.0272753 11.64 0.081826C8.06087 2.19478 4.39517 3.74949 0.433343 4.83498C0.177406 4.90504 0 5.13768 0 5.40307V11.4212C0 17.6185 2.859 21.7208 5.25748 24.0707C7.8396 26.6008 10.8474 28 11.9395 28C13.0314 28 16.0392 26.6008 18.6213 24.0707C21.0198 21.7208 23.8786 17.6186 23.8786 11.4212V5.40302C23.8786 5.13768 23.7012 4.90504 23.4453 4.83498ZM22.7006 11.4211C22.7006 17.2094 20.034 21.0373 17.7969 23.2292C15.2577 25.7173 12.5428 26.8219 11.9395 26.8219C11.3361 26.8219 8.62109 25.7173 6.08184 23.2292C3.84474 21.0372 1.17802 17.2094 1.17802 11.4211V5.85014C4.96665 4.77444 8.49498 3.27322 11.9396 1.2715C15.2981 3.22012 19.0025 4.79599 22.7006 5.84992V11.4211Z" fill="black"/>
<path d="M6.71875 5.7843C6.59953 5.4816 6.25757 5.33291 5.95482 5.45218C4.90263 5.86677 3.82267 6.24838 2.74494 6.58645C2.49934 6.66356 2.33221 6.89106 2.33221 7.14842V9.42293C2.33221 9.74821 2.59597 10.0119 2.9212 10.0119C3.24642 10.0119 3.51018 9.74821 3.51018 9.42293V7.57887C4.477 7.26605 5.44278 6.92005 6.38663 6.54812C6.68933 6.42895 6.83802 6.08699 6.71875 5.7843Z" fill="black"/>
<path d="M7.83758 5.89599C7.9166 5.89599 7.99683 5.88008 8.07377 5.8465L8.0846 5.8418C8.38259 5.7112 8.5168 5.36432 8.3862 5.06644C8.2555 4.76845 7.90665 4.63364 7.60899 4.76413L7.59947 4.76823C7.30132 4.89844 7.16668 5.24505 7.29689 5.54309C7.39352 5.76436 7.61036 5.89599 7.83758 5.89599Z" fill="black"/>
<path d="M18.9569 18.9921C18.6847 18.8142 18.3197 18.8907 18.1416 19.163C17.6563 19.9059 17.0868 20.6172 16.449 21.2771C15.9244 21.8197 15.356 22.3255 14.7595 22.7802C14.5009 22.9774 14.4511 23.347 14.6483 23.6057C14.7643 23.7577 14.9397 23.8377 15.1171 23.8377C15.2416 23.8377 15.3671 23.7983 15.4738 23.717C16.1172 23.2264 16.7302 22.681 17.2958 22.0959C17.9855 21.3826 18.6018 20.6126 19.1278 19.8073C19.3058 19.535 19.2292 19.17 18.9569 18.9921Z" fill="black"/>
<path d="M13.3917 23.7038L13.3579 23.7237C13.0764 23.8868 12.9802 24.247 13.1432 24.5285C13.2524 24.7172 13.4501 24.8225 13.6535 24.8225C13.7536 24.8225 13.8552 24.797 13.948 24.7431L13.987 24.7202C14.2677 24.5558 14.3619 24.195 14.1976 23.9143C14.0331 23.6337 13.6722 23.5396 13.3917 23.7038Z" fill="black"/>
<path d="M7.92464 12.7979C7.56299 12.4362 7.08202 12.2371 6.57047 12.2371C6.05892 12.2371 5.57789 12.4362 5.21608 12.7979C4.46944 13.5447 4.46944 14.7598 5.21608 15.5066L8.69398 18.9844C9.05568 19.346 9.53666 19.5451 10.0483 19.5451C10.5599 19.5451 11.0408 19.346 11.4026 18.9843L18.6629 11.7239C19.4095 10.9769 19.4095 9.76189 18.6628 9.01535C18.3011 8.65365 17.8202 8.45459 17.3085 8.45459C16.7969 8.45459 16.3159 8.65371 15.9542 9.01535L10.0482 14.9213L7.92464 12.7979ZM16.7872 9.84835C16.9263 9.70917 17.1116 9.63256 17.3086 9.63256C17.5057 9.63256 17.6907 9.70917 17.83 9.84835C18.1174 10.1357 18.1174 10.6035 17.8299 10.891L10.5697 18.1513C10.4305 18.2905 10.2452 18.3671 10.0483 18.3671C9.85128 18.3671 9.66605 18.2905 9.52682 18.1513L6.04903 14.6736C5.76153 14.3861 5.76153 13.9184 6.04892 13.631C6.18815 13.4918 6.37338 13.4151 6.57042 13.4151C6.76745 13.4151 6.95257 13.4917 7.09175 13.6309L9.63171 16.1709C9.74223 16.2813 9.89196 16.3434 10.0482 16.3434C10.2044 16.3434 10.3542 16.2813 10.4646 16.1709L16.7872 9.84835Z" fill="black"/>
</svg>
