<svg width="18" height="16" viewBox="0 0 18 16" fill="none" xmlns="http://www.w3.org/2000/svg">
<path d="M7.55555 16C8.29193 16 8.88889 15.403 8.88889 14.6667C8.88889 13.9303 8.29193 13.3333 7.55555 13.3333C6.81917 13.3333 6.22222 13.9303 6.22222 14.6667C6.22222 15.403 6.81917 16 7.55555 16Z" fill="#56BE8C"/>
<path d="M13.7778 16C14.5142 16 15.1111 15.403 15.1111 14.6667C15.1111 13.9303 14.5142 13.3333 13.7778 13.3333C13.0414 13.3333 12.4444 13.9303 12.4444 14.6667C12.4444 15.403 13.0414 16 13.7778 16Z" fill="#56BE8C"/>
<path d="M16.8889 3.55556H4.74133L3.71555 1.09334C3.5809 0.76902 3.35299 0.491982 3.06071 0.297339C2.76843 0.102696 2.42494 -0.000787507 2.07378 4.51252e-06H0V1.77778H2.07467L6.29066 11.8978C6.42844 12.2284 6.75289 12.4444 7.11111 12.4444H14.2222C14.5929 12.4444 14.9244 12.2142 15.0551 11.8684L17.7218 4.75734C17.7717 4.62275 17.7884 4.4781 17.7705 4.33567C17.7526 4.19324 17.7005 4.05725 17.6187 3.93926C17.5369 3.82127 17.4279 3.72477 17.3008 3.65797C17.1738 3.59117 17.0324 3.55603 16.8889 3.55556ZM13.3333 8.88889H11.5556V10.6667H9.77777V8.88889H8V7.11111H9.77777V5.33334H11.5556V7.11111H13.3333V8.88889Z" fill="#56BE8C"/>
</svg>
