<svg width="32" height="32" viewBox="0 0 32 32" fill="none" xmlns="http://www.w3.org/2000/svg">
<g clip-path="url(#clip0)">
<path d="M29.2 0L11.8 19.15L6.74995 15.3H3.94995L11.8 28.05L32 0H29.2Z" fill="#03808B"/>
<path d="M26.95 28.05C26.95 28.35 26.7 28.6 26.4 28.6H3.95C3.65 28.6 3.4 28.35 3.4 28.05V5.59995C3.4 5.29995 3.65 5.04995 3.95 5.04995H19.3L22.35 1.69995H1.1C0.5 1.69995 0 2.19995 0 2.79995V30.85C0 31.5 0.5 32 1.1 32H29.15C29.75 32 30.25 31.5 30.25 30.9V9.04995L26.9 13.75C26.95 13.75 26.95 28.05 26.95 28.05Z" fill="#DADADA"/>
</g>
<defs>
<clipPath id="clip0">
<path d="M0 0H32V32H0V0Z" fill="white"/>
</clipPath>
</defs>
</svg>
