<svg width="18" height="20" viewBox="0 0 18 20" fill="none" xmlns="http://www.w3.org/2000/svg">
<path d="M16 0H2C1.46957 0 0.960859 0.210714 0.585786 0.585786C0.210714 0.960859 0 1.46957 0 2V15C0 15.5304 0.210714 16.0391 0.585786 16.4142C0.960859 16.7893 1.46957 17 2 17H6L9 20L12 17H16C16.5304 17 17.0391 16.7893 17.4142 16.4142C17.7893 16.0391 18 15.5304 18 15V2C18 1.46957 17.7893 0.960859 17.4142 0.585786C17.0391 0.210714 16.5304 0 16 0ZM9 3C10.727 3 12 4.272 12 6C12 7.728 10.727 9 9 9C7.274 9 6 7.728 6 6C6 4.272 7.274 3 9 3ZM4.177 14C4.735 12.277 6.673 11 9 11C11.327 11 13.266 12.277 13.823 14H4.177Z" fill="#2196F3"/>
</svg>
