<svg width="19" height="16" viewBox="0 0 19 16" fill="none" xmlns="http://www.w3.org/2000/svg">
<path d="M10.2857 0C6.26345 0 2.93454 2.98718 2.37702 6.85712H0L3.42858 10.2857L6.85715 6.85712H4.68694C5.21797 4.25221 7.52636 2.28569 10.2857 2.28569C13.4364 2.28569 16 4.84932 16 7.99996C16 11.1506 13.4364 13.7143 10.2857 13.7143C8.45257 13.7143 6.71762 12.8248 5.64507 11.3359L3.79017 12.6708C5.29128 14.7556 7.71931 16 10.2857 16C14.6969 16 18.2857 12.4107 18.2857 8C18.2857 3.58928 14.6969 0 10.2857 0Z" fill="#2196F3"/>
<path d="M9.14285 4.57142V9.21874L12.5547 11.2656L13.731 9.30581L11.4285 7.92413V4.57145L9.14285 4.57142Z" fill="#2196F3"/>
</svg>
