<svg width="20" height="16" viewBox="0 0 20 16" fill="none" xmlns="http://www.w3.org/2000/svg">
<path d="M1 0C0.469567 0 -0.0391408 0.210714 -0.414214 0.585786C-0.789286 0.960859 -1 1.46957 -1 2V13H1C1 13.7956 1.31607 14.5587 1.87868 15.1213C2.44129 15.6839 3.20435 16 4 16C4.79565 16 5.55871 15.6839 6.12132 15.1213C6.68393 14.5587 7 13.7956 7 13H13C13 13.7956 13.3161 14.5587 13.8787 15.1213C14.4413 15.6839 15.2044 16 16 16C16.7956 16 17.5587 15.6839 18.1213 15.1213C18.6839 14.5587 19 13.7956 19 13H21V8L18 4H15V0H1ZM8 2L12 6L8 10V7H2V5H8V2ZM15 5.5H17.5L19.47 8H15V5.5ZM4 11.5C4.39782 11.5 4.77936 11.658 5.06066 11.9393C5.34196 12.2206 5.5 12.6022 5.5 13C5.5 13.3978 5.34196 13.7794 5.06066 14.0607C4.77936 14.342 4.39782 14.5 4 14.5C3.60218 14.5 3.22064 14.342 2.93934 14.0607C2.65804 13.7794 2.5 13.3978 2.5 13C2.5 12.6022 2.65804 12.2206 2.93934 11.9393C3.22064 11.658 3.60218 11.5 4 11.5ZM16 11.5C16.3978 11.5 16.7794 11.658 17.0607 11.9393C17.342 12.2206 17.5 12.6022 17.5 13C17.5 13.3978 17.342 13.7794 17.0607 14.0607C16.7794 14.342 16.3978 14.5 16 14.5C15.6022 14.5 15.2206 14.342 14.9393 14.0607C14.658 13.7794 14.5 13.3978 14.5 13C14.5 12.6022 14.658 12.2206 14.9393 11.9393C15.2206 11.658 15.6022 11.5 16 11.5Z" fill="#3D3A45"/>
</svg>
