<svg width="24" height="24" viewBox="0 0 24 24" fill="none" xmlns="http://www.w3.org/2000/svg">
<path d="M10 23.8667C4.33333 22.8667 0 17.9333 0 12C0 5.4 5.4 0 12 0C18.6 0 24 5.4 24 12C24 17.9333 19.6667 22.8667 14 23.8667L13.3333 23.3333H10.6667L10 23.8667Z" fill="url(#paint0_linear)"/>
<path d="M16.6667 15.3334L17.2 12.0001H14V9.66675C14 8.73341 14.3333 8.00008 15.8 8.00008H17.3333V4.93341C16.4667 4.80008 15.5333 4.66675 14.6667 4.66675C11.9333 4.66675 10 6.33341 10 9.33342V12.0001H7V15.3334H10V23.8001C10.6667 23.9334 11.3333 24.0001 12 24.0001C12.6667 24.0001 13.3333 23.9334 14 23.8001V15.3334H16.6667Z" fill="white"/>
<defs>
<linearGradient id="paint0_linear" x1="12" y1="23.1693" x2="12" y2="0" gradientUnits="userSpaceOnUse">
<stop stop-color="#0062E0"/>
<stop offset="1" stop-color="#19AFFF"/>
</linearGradient>
</defs>
</svg>
