<svg width="24" height="24" viewBox="0 0 24 24" fill="none" xmlns="http://www.w3.org/2000/svg">
<g clip-path="url(#clip0)">
<path d="M14.7205 0.380952C13.8624 0.145125 12.9459 0 11.9903 0C9.24055 0 6.76384 1.161 5.1062 2.9932L9.35756 6.31293L14.7205 0.380952Z" fill="#1A73E8"/>
<path d="M5.10618 2.99316C3.79957 4.44441 3 6.31289 3 8.36278C3 9.94101 3.33153 11.2109 3.89707 12.3537L9.35753 6.31289L5.10618 2.99316Z" fill="#EA4335"/>
<path d="M12.0098 5.1699C13.9209 5.1699 15.4616 6.60301 15.4616 8.38078C15.4616 9.16083 15.1495 9.88645 14.6425 10.4488C14.6425 10.4488 17.3532 7.43747 20.0054 4.51684C18.9133 2.55766 17.0217 1.07013 14.74 0.398926L9.35754 6.31276C9.9816 5.62341 10.9372 5.1699 12.0098 5.1699Z" fill="#4285F4"/>
<path d="M12.0098 11.574C10.0986 11.574 8.55799 10.1409 8.55799 8.36312C8.55799 7.58307 8.85051 6.85745 9.35755 6.31323L3.89709 12.3541C4.83317 14.277 6.3933 15.837 7.99244 17.7781L14.6425 10.4311C13.9989 11.1386 13.0629 11.574 12.0098 11.574Z" fill="#FBBC04"/>
<path d="M14.4864 19.7915C17.4897 15.4197 20.9805 13.4423 20.9805 8.36297C20.9805 6.96614 20.61 5.66002 19.9664 4.49902L7.9729 17.7961C8.47994 18.4129 8.98698 19.0841 9.49403 19.8097C11.3272 22.4401 10.8201 24.0002 11.9902 24.0002C13.1798 24.0002 12.6728 22.4219 14.4864 19.7915Z" fill="#34A853"/>
</g>
<defs>
<clipPath id="clip0">
<rect width="18" height="24" fill="white" transform="translate(3)"/>
</clipPath>
</defs>
</svg>
