<svg width="28" height="22" viewBox="0 0 28 22" fill="none" xmlns="http://www.w3.org/2000/svg">
<path d="M20.9697 8.24907H14.4385V10.6553C14.4385 12.3612 13.0506 13.7491 11.3447 13.7491C9.63887 13.7491 8.25098 12.3612 8.25098 10.6553V5.43032L5.46231 7.1061C4.63301 7.60024 4.12598 8.49829 4.12598 9.46079V11.4932L0.68848 13.4784C0.0310582 13.8565 -0.196676 14.6987 0.185746 15.3561L3.62325 21.3116C4.00137 21.969 4.84356 22.1924 5.50098 21.8143L9.94395 19.2491H15.8135C17.3303 19.2491 18.5635 18.0159 18.5635 16.4991H19.251C20.0115 16.4991 20.626 15.8846 20.626 15.1241V12.3741H20.9697C21.5412 12.3741 22.001 11.9143 22.001 11.3428V9.28032C22.001 8.70884 21.5412 8.24907 20.9697 8.24907ZM27.3162 6.64204L23.8787 0.68657C23.5006 0.0291486 22.6584 -0.194289 22.001 0.183836L17.558 2.74907H13.1666C12.651 2.74907 12.1482 2.89516 11.71 3.16587L10.2705 4.06391C9.8666 4.31313 9.62598 4.75571 9.62598 5.22837V10.6553C9.62598 11.6049 10.3951 12.3741 11.3447 12.3741C12.2943 12.3741 13.0635 11.6049 13.0635 10.6553V6.87407H20.9697C22.2975 6.87407 23.376 7.95259 23.376 9.28032V10.5049L26.8135 8.51977C27.4709 8.13735 27.6943 7.29946 27.3162 6.64204Z" fill="black"/>
</svg>
