<svg width="22" height="22" viewBox="0 0 22 22" fill="none" xmlns="http://www.w3.org/2000/svg">
<path d="M21.6171 19.8959L21.4274 16.3564C21.341 14.9981 20.457 13.8277 19.1753 13.3747L14.8062 11.8306C14.6053 11.7595 14.378 11.8111 14.2273 11.9621L14.0872 12.1023L13.136 11.6248L13.1359 10.7846C14.0512 10.17 14.7838 9.11623 14.9834 8.07049C14.9854 8.05975 14.9873 8.04909 14.9892 8.03835C14.9956 8.00277 15.0016 7.9672 15.0068 7.93166C15.0118 7.89823 15.0163 7.86484 15.02 7.83154C15.0215 7.81749 15.0228 7.80348 15.0242 7.78948C15.0276 7.75463 15.0304 7.71991 15.0325 7.68532C15.0331 7.67574 15.0338 7.66616 15.0343 7.65657C15.0348 7.64729 15.0356 7.63797 15.036 7.62873H15.2709C15.7315 7.62873 16.1062 7.25404 16.1062 6.7935V5.77097C16.1062 5.72323 16.1021 5.67614 16.0942 5.62982C16.1018 5.60275 16.1062 5.5743 16.1062 5.54479C16.1062 5.26476 16.0588 4.99577 15.9729 4.74453V3.63276C15.9729 1.62964 14.3432 0 12.3401 0H9.65985C7.65672 0 6.02709 1.62964 6.02709 3.63276V4.74453C5.94115 4.99581 5.89384 5.2648 5.89384 5.54479C5.89384 5.5743 5.89822 5.60275 5.90583 5.62982C5.89788 5.67614 5.89384 5.72323 5.89384 5.77097V6.7935C5.89384 7.25404 6.26853 7.62873 6.72907 7.62873H6.96372C6.96415 7.63999 6.9651 7.65133 6.9657 7.66263C6.96617 7.67226 6.96677 7.68184 6.96738 7.69146C6.96957 7.7273 6.97245 7.76322 6.97605 7.79927C6.97721 7.81096 6.97816 7.82261 6.97945 7.83434C6.984 7.87524 6.98933 7.91623 6.99561 7.95736C6.99913 7.98069 7.00347 8.00406 7.00755 8.02748C7.0106 8.0448 7.01361 8.06207 7.01696 8.07939C7.02263 8.10895 7.02873 8.13851 7.03522 8.16807C7.03647 8.1737 7.03784 8.17938 7.03909 8.185C7.26674 9.19469 7.98041 10.1991 8.86398 10.7929L8.86389 11.6248L7.9129 12.1024L7.77274 11.9621C7.62205 11.8111 7.3947 11.7595 7.19378 11.8306L2.82462 13.3747C1.5429 13.8277 0.658949 14.9981 0.572366 16.3595L0.383003 19.8927C0.365815 20.1633 0.46228 20.4318 0.647691 20.6293C0.832801 20.8266 1.09409 20.9397 1.3645 20.9397H5.61197V21.513C5.61197 21.7815 5.83042 22 6.09893 22H15.901C16.1695 22 16.3879 21.7815 16.3879 21.513V20.9397H20.6354C20.9058 20.9397 21.1671 20.8266 21.3522 20.6293C21.5376 20.4318 21.6341 20.1633 21.6171 19.8959ZM15.4798 6.7935C15.4798 6.9087 15.3861 7.00246 15.2709 7.00246H15.038V5.85794H15.4798V6.7935ZM9.65985 0.626271H12.3402C13.9979 0.626271 15.3466 1.97498 15.3466 3.63276V3.76076C15.3418 3.75608 15.3366 3.75174 15.3317 3.7471C15.3095 3.726 15.287 3.70525 15.264 3.68501C15.2605 3.68196 15.257 3.67895 15.2535 3.67594C14.8752 3.34616 14.3966 3.12878 13.8698 3.07726C13.8664 3.07691 13.8629 3.07678 13.8595 3.07648C13.8232 3.07309 13.7867 3.07017 13.75 3.06832C13.709 3.06626 13.6679 3.06518 13.6266 3.06518H8.37349C8.33219 3.06518 8.29107 3.06626 8.25012 3.06832C8.21339 3.07012 8.1769 3.07305 8.1406 3.07648C8.1372 3.07683 8.13372 3.07691 8.13033 3.07726C7.60349 3.12878 7.1249 3.34616 6.74656 3.67594C6.74308 3.67895 6.73955 3.68196 6.73612 3.68501C6.71313 3.70529 6.69057 3.726 6.66835 3.7471C6.66346 3.75174 6.6583 3.75608 6.65344 3.76076V3.63276H6.65336C6.65336 1.97498 8.00206 0.626271 9.65985 0.626271ZM6.96196 7.00246H6.72903C6.61378 7.00246 6.52007 6.9087 6.52007 6.7935V5.85794H6.96196V7.00246ZM6.54654 5.23167C6.61155 4.85118 6.79301 4.50997 7.05275 4.24592C7.05997 4.23862 7.06741 4.23148 7.07475 4.22431C7.08416 4.21507 7.09353 4.20583 7.10311 4.19681C7.11549 4.18516 7.12808 4.17378 7.14075 4.16252C7.14509 4.15865 7.14939 4.15479 7.15377 4.15096C7.16972 4.13708 7.18583 4.12338 7.2022 4.11005C7.20259 4.10971 7.20302 4.10941 7.2034 4.10907C7.45404 3.90527 7.75667 3.76712 8.08186 3.71483C8.0853 3.71427 8.08873 3.71371 8.09217 3.71319C8.11056 3.71036 8.12904 3.70787 8.1476 3.70555C8.15645 3.70447 8.1653 3.70348 8.1742 3.7025C8.18924 3.70086 8.20432 3.69932 8.21944 3.69807C8.23337 3.69691 8.24737 3.69605 8.26138 3.69519C8.2726 3.6945 8.28381 3.69369 8.29507 3.69321C8.32107 3.69214 8.34719 3.69145 8.37344 3.69145H13.6264C13.6527 3.69145 13.6788 3.69214 13.7048 3.69321C13.7161 3.69369 13.7273 3.6945 13.7385 3.69519C13.7525 3.69605 13.7665 3.69691 13.7804 3.69807C13.7956 3.69936 13.8106 3.70086 13.8257 3.7025C13.8346 3.70344 13.8434 3.70443 13.8523 3.70555C13.8708 3.70782 13.8893 3.71032 13.9077 3.71319C13.9111 3.71371 13.9146 3.71431 13.918 3.71483C14.2432 3.76708 14.5458 3.90527 14.7965 4.10907C14.7969 4.10941 14.7973 4.10971 14.7977 4.11005C14.814 4.12338 14.8302 4.13708 14.8461 4.15096C14.8505 4.15479 14.8548 4.15865 14.8591 4.16252C14.8718 4.17378 14.8844 4.18521 14.8968 4.19681C14.9063 4.20583 14.9158 4.21507 14.9251 4.22431C14.9325 4.23148 14.9399 4.23862 14.9471 4.24592C15.2068 4.50997 15.3883 4.85118 15.4533 5.23167H6.54654ZM7.60297 7.77371C7.60245 7.76928 7.60198 7.76486 7.60151 7.76043C7.59764 7.72541 7.59468 7.69052 7.59253 7.65576C7.59227 7.65133 7.59188 7.64686 7.59163 7.64244C7.58948 7.60381 7.58823 7.56535 7.58823 7.52719V5.85794H14.4117V7.51907C14.4117 7.55719 14.4105 7.5956 14.4083 7.63419C14.4081 7.63913 14.4076 7.64416 14.4073 7.6491C14.4052 7.683 14.4023 7.71707 14.3985 7.75128C14.3979 7.75682 14.3973 7.76232 14.3967 7.76786C14.255 8.98354 13.1197 10.3566 11.9643 10.644L11.9234 10.6541C11.0831 10.8631 10.8704 10.8626 10.0268 10.65C8.87506 10.3596 7.74335 8.98616 7.60297 7.77371ZM9.13889 12.1875C9.35021 12.1089 9.49008 11.9093 9.49012 11.6814L9.49016 11.1298C9.61658 11.1814 9.74462 11.2247 9.87374 11.2573C10.3503 11.3774 10.6651 11.4373 10.9806 11.4373C11.2925 11.4373 11.605 11.3787 12.0746 11.262L12.1154 11.2518C12.2482 11.2188 12.3797 11.1746 12.5096 11.1216L12.5097 11.6815C12.5097 11.9094 12.6496 12.109 12.8609 12.1875L13.5992 12.5581C13.595 12.5615 13.5908 12.5649 13.5866 12.5683C13.5452 12.6015 13.5034 12.6341 13.461 12.6656C13.4599 12.6664 13.4589 12.6671 13.4579 12.6679C13.4159 12.699 13.3732 12.729 13.3302 12.7584C13.3234 12.7631 13.3166 12.7678 13.3097 12.7724C13.2679 12.8007 13.2254 12.828 13.1826 12.8547C13.1741 12.86 13.1655 12.8652 13.157 12.8704C13.1139 12.8968 13.0704 12.9224 13.0264 12.9472C13.0197 12.9509 13.0129 12.9546 13.0061 12.9583C12.962 12.9828 12.9174 13.0066 12.8724 13.0294C12.8695 13.0309 12.8666 13.0324 12.8637 13.0339C12.8175 13.0572 12.7708 13.0793 12.7238 13.1008C12.7154 13.1046 12.707 13.1085 12.6986 13.1123C12.653 13.1327 12.607 13.1523 12.5608 13.171C12.5516 13.1747 12.5424 13.1784 12.5333 13.182C12.486 13.2007 12.4386 13.2188 12.3906 13.2357C12.3848 13.2378 12.3789 13.2396 12.3731 13.2417C12.3262 13.2581 12.279 13.2736 12.2314 13.2883C12.226 13.29 12.2206 13.2917 12.2152 13.2934C12.1663 13.3083 12.1169 13.3221 12.0674 13.3351C12.058 13.3376 12.0486 13.3401 12.0392 13.3425C11.9904 13.3549 11.9414 13.3665 11.8922 13.3772C11.8831 13.3792 11.8739 13.3811 11.8647 13.383C11.8138 13.3937 11.7627 13.4037 11.7112 13.4125C11.7075 13.4132 11.7038 13.4136 11.7002 13.4143C11.6498 13.4227 11.5992 13.4302 11.5483 13.4368C11.5411 13.4378 11.534 13.4388 11.5268 13.4397C11.4756 13.4462 11.4243 13.4515 11.3727 13.456C11.3629 13.4569 11.3531 13.4577 11.3432 13.4585C11.2919 13.4627 11.2404 13.466 11.1887 13.4682C11.1803 13.4686 11.1718 13.4688 11.1634 13.4691C11.1091 13.4712 11.0547 13.4726 11 13.4726C10.9453 13.4726 10.8909 13.4712 10.8366 13.4691C10.8283 13.4688 10.8199 13.4686 10.8115 13.4682C10.7598 13.466 10.7082 13.4627 10.6569 13.4585C10.6471 13.4577 10.6374 13.4569 10.6277 13.456C10.5759 13.4514 10.5244 13.4461 10.4731 13.4397C10.4664 13.4388 10.4598 13.4379 10.4531 13.437C10.4014 13.4303 10.3498 13.4227 10.2986 13.4141C10.2957 13.4136 10.2928 13.4132 10.2899 13.4127C10.2376 13.4037 10.1856 13.3936 10.1338 13.3827C10.1258 13.381 10.1178 13.3794 10.1098 13.3776C10.0592 13.3667 10.009 13.3548 9.95908 13.342C9.95148 13.34 9.94391 13.338 9.93631 13.336C9.88483 13.3224 9.83357 13.3081 9.78274 13.2927C9.78054 13.292 9.7784 13.2913 9.77621 13.2906C9.7237 13.2745 9.67153 13.2574 9.61975 13.2392C9.61761 13.2384 9.61546 13.2377 9.61331 13.237C9.56205 13.2189 9.51122 13.1996 9.46077 13.1795C9.45561 13.1775 9.45046 13.1754 9.4453 13.1734C9.39516 13.1531 9.34536 13.132 9.29607 13.1098C9.29268 13.1083 9.28932 13.1067 9.28593 13.1052C9.18246 13.0582 9.08084 13.007 8.98145 12.9515C8.9812 12.9513 8.9809 12.9512 8.98064 12.951C8.93122 12.9234 8.88237 12.8946 8.83407 12.8649C8.83166 12.8634 8.82926 12.8619 8.82685 12.8604C8.77855 12.8306 8.73077 12.7998 8.68359 12.7678C8.68338 12.7677 8.68312 12.7675 8.68291 12.7674C8.58747 12.7027 8.49449 12.6338 8.40412 12.5608C8.40301 12.5599 8.40193 12.559 8.40082 12.5581L9.13889 12.1875ZM20.8956 20.2006C20.8274 20.2733 20.735 20.3133 20.6355 20.3133H18.049V16.6047C18.049 16.4318 17.9088 16.2916 17.7359 16.2916C17.5629 16.2916 17.4227 16.4318 17.4227 16.6047V20.3133H16.3879V15.1102C16.3879 14.8417 16.1695 14.6232 15.9009 14.6232H6.09893V14.6232C5.83042 14.6232 5.61197 14.8417 5.61197 15.1102V17.2023C5.61197 17.3753 5.75217 17.5155 5.92512 17.5155C6.09807 17.5155 6.23828 17.3753 6.23828 17.2023V15.2495H9.43718V17.9683C9.43718 18.0793 9.49588 18.1819 9.59148 18.2382C9.68709 18.2944 9.80534 18.2959 9.90232 18.2421L10.9768 17.6455L12.1025 18.2447C12.1486 18.2692 12.1991 18.2814 12.2497 18.2814C12.3055 18.2814 12.3614 18.2664 12.4109 18.2367C12.5051 18.1801 12.5628 18.0782 12.5628 17.9682V15.2494H15.7617V21.3737H6.23824V19.4075C6.23824 19.2346 6.09803 19.0944 5.92508 19.0944C5.75213 19.0944 5.61192 19.2346 5.61192 19.4075V20.3134H4.57711V16.6048C4.57711 16.4319 4.4369 16.2917 4.26395 16.2917C4.091 16.2917 3.95079 16.4319 3.95079 16.6048V20.3134H1.3645C1.26498 20.3134 1.1726 20.2734 1.10441 20.2007C1.03591 20.1277 1.00171 20.0325 1.00824 19.9293L1.19761 16.3961C1.26803 15.2886 1.98862 14.3344 3.03336 13.9651L7.36075 12.4357L7.63116 12.7065C7.6312 12.7066 7.63124 12.7067 7.63133 12.7067C8.52766 13.6044 9.724 14.0988 11 14.0988C11.1308 14.0988 11.2606 14.0933 11.3895 14.083C12.518 13.9929 13.5643 13.5124 14.3687 12.7067L14.3703 12.7051C14.3703 12.7051 14.3703 12.705 14.3704 12.705V12.7049L14.6392 12.4357L18.9666 13.965C20.0114 14.3343 20.732 15.2885 20.8022 16.3929L20.9919 19.9323C20.9982 20.0324 20.964 20.1277 20.8956 20.2006ZM11.9365 15.2495V17.4469L11.1208 17.0127C11.0748 16.9882 11.0242 16.976 10.9736 16.976C10.9212 16.976 10.8689 16.9891 10.8216 17.0153L10.0635 17.4363V15.2495H11.9365Z" fill="black"/>
</svg>
