<svg width="24" height="24" viewBox="0 0 24 24" fill="none" xmlns="http://www.w3.org/2000/svg">
<path d="M7.3483 5.32736C7.4511 5.19359 7.54362 5.03925 7.66698 4.91578C8.92113 3.65018 10.1856 2.39488 11.4397 1.13957C11.8818 0.69713 12.1079 0.686841 12.5499 1.12928C13.8144 2.38459 15.0685 3.65018 16.3227 4.90549C16.446 5.02896 16.5386 5.1833 16.6516 5.31707C16.6311 5.36851 16.6105 5.40967 16.59 5.46112C16.0348 5.46112 15.4797 5.46112 14.9246 5.46112C14.277 5.46112 14.0919 5.63604 14.0919 6.27398C14.0817 7.128 14.0919 7.99231 14.0817 8.84633C14.0817 9.52542 13.9377 9.66948 13.2695 9.66948C12.4471 9.66948 11.6248 9.66948 10.8024 9.66948C10.1342 9.66948 9.96968 9.50485 9.96968 8.81546C9.96968 7.97173 9.96968 7.13829 9.96968 6.29456C9.96968 5.63604 9.79492 5.47141 9.15757 5.46112C8.58189 5.46112 7.99593 5.46112 7.42026 5.46112C7.40998 5.41996 7.37914 5.3788 7.3483 5.32736Z" stroke="black" stroke-width="0.7"/>
<path d="M16.6003 18.7447C16.4563 18.9196 16.3535 19.0534 16.2405 19.1666C15.0172 20.391 13.7938 21.6155 12.5705 22.8399C12.0976 23.3132 11.892 23.3132 11.4192 22.8399C10.2061 21.6258 8.9931 20.4116 7.79035 19.1975C7.66699 19.074 7.56419 18.9299 7.45111 18.7962C7.47167 18.7447 7.48195 18.683 7.50251 18.6315C8.00623 18.6315 8.49967 18.6315 9.00338 18.6315C9.8669 18.6315 9.99026 18.5081 9.99026 17.6643C9.99026 16.7897 9.99026 15.9151 9.99026 15.0405C9.99026 14.4129 10.1547 14.2483 10.7715 14.238C11.6248 14.238 12.4883 14.238 13.3415 14.238C13.9583 14.238 14.092 14.3717 14.1022 14.9994C14.1125 15.9254 14.1022 16.8515 14.1125 17.7775C14.1228 18.4566 14.2873 18.611 14.976 18.6315C15.4386 18.6418 15.9012 18.6418 16.3638 18.6521C16.3947 18.6521 16.4461 18.683 16.6003 18.7447Z" stroke="black" stroke-width="0.7"/>
<path d="M5.37459 16.7074C5.13815 16.5119 4.99423 16.409 4.87087 16.2855C3.627 15.0508 2.3934 13.8161 1.15981 12.5711C0.686934 12.0978 0.676654 11.9125 1.12897 11.4598C2.37284 10.2045 3.627 8.95949 4.87087 7.71447C4.99423 7.591 5.14843 7.50869 5.37459 7.34406C5.37459 10.4823 5.37459 13.5074 5.37459 16.7074Z" stroke="black" stroke-width="0.7"/>
<path d="M18.7282 7.39551C18.9646 7.59101 19.0983 7.68361 19.2114 7.79679C20.4244 9.01094 21.6374 10.2148 22.8505 11.4392C23.3233 11.9125 23.3233 12.0875 22.871 12.5505C21.6477 13.7749 20.4244 14.9994 19.2011 16.2238C19.088 16.337 18.9544 16.4193 18.7385 16.5942C18.7282 13.4868 18.7282 10.5235 18.7282 7.39551Z" stroke="black" stroke-width="0.7"/>
</svg>
