<svg width="4" height="16" viewBox="0 0 4 16" fill="none" xmlns="http://www.w3.org/2000/svg">
<path d="M0 14.1811V13.7465C0 13.7357 0.00529101 13.725 0.015873 13.7143L0.031746 13.6499C0.0952381 13.1885 0.296296 12.7941 0.634921 12.4668C0.973545 12.1395 1.36508 11.9651 1.80952 11.9437C2.30688 11.9007 2.74603 12.0107 3.12698 12.2736C3.50794 12.5366 3.7672 12.9041 3.90476 13.3763C3.91534 13.387 3.92328 13.4031 3.92857 13.4245C3.93386 13.446 3.93915 13.4648 3.94444 13.4809C3.94974 13.497 3.95238 13.5131 3.95238 13.5292C3.95238 13.5453 3.95503 13.5641 3.96032 13.5855C3.96561 13.607 3.9709 13.6258 3.97619 13.6419C3.98148 13.6579 3.98677 13.6767 3.99206 13.6982C3.99735 13.7197 4 13.7357 4 13.7465V14.1811L3.99206 14.2213L3.96825 14.2777C3.90476 14.6962 3.7328 15.0583 3.45238 15.3642C3.17196 15.67 2.8254 15.8659 2.4127 15.9517C2.38095 15.9624 2.33862 15.9732 2.28571 15.9839C2.25397 15.9946 2.2328 16 2.22222 16H1.7619C1.73016 15.9893 1.70899 15.9785 1.69841 15.9678C1.28571 15.9034 0.933863 15.7317 0.642857 15.4527C0.351852 15.1737 0.15873 14.8303 0.0634921 14.4225C0.0529101 14.3903 0.0396825 14.3474 0.0238095 14.2938C0.00793651 14.2401 0 14.2025 0 14.1811ZM4 1.81891V2.25352L3.99206 2.29376L3.96825 2.3501C3.90476 2.81154 3.70106 3.2059 3.35714 3.5332C3.01323 3.8605 2.61905 4.03488 2.1746 4.05634C1.84656 4.0778 1.53968 4.03219 1.25397 3.91952C0.968254 3.80684 0.724868 3.63783 0.52381 3.41247C0.322751 3.18712 0.174603 2.91885 0.0793651 2.60765C0.0793651 2.57545 0.0529101 2.45741 0 2.25352V1.81891C0 1.80818 0.00529101 1.79209 0.015873 1.77062L0.031746 1.72233C0.179894 0.896043 0.656085 0.348759 1.46032 0.0804829C1.50265 0.0697518 1.56349 0.0536553 1.64286 0.0321932C1.72222 0.0107311 1.7672 0 1.77778 0H2.22222L2.2381 0.0160966C2.26984 0.0268276 2.29101 0.0321932 2.30159 0.0321932C2.71429 0.0965795 3.06878 0.268276 3.36508 0.547284C3.66138 0.826291 3.85714 1.17505 3.95238 1.59356C3.96296 1.63649 3.97884 1.70624 4 1.80282V1.81891ZM4 7.77465V8.22535L3.98413 8.26559L3.96825 8.32193C3.89418 8.78337 3.68519 9.17773 3.34127 9.50503C2.99735 9.83233 2.60317 10.0067 2.15873 10.0282C1.65079 10.0496 1.2037 9.92086 0.81746 9.64185C0.431217 9.36284 0.179894 8.98726 0.0634921 8.51509C0.0529101 8.4507 0.031746 8.35412 0 8.22535V7.77465L0.015873 7.73441L0.031746 7.67807C0.0952381 7.21663 0.301587 6.82227 0.650794 6.49497C1 6.16767 1.39683 5.99329 1.84127 5.97183C2.34921 5.95037 2.7963 6.07914 3.18254 6.35815C3.56878 6.63716 3.82011 7.01274 3.93651 7.48491C3.94709 7.5493 3.96825 7.64587 4 7.77465Z" fill="#171717"/>
</svg>
