<svg width="20" height="20" viewBox="0 0 20 20" fill="none" xmlns="http://www.w3.org/2000/svg">
<path d="M10.0001 0C4.48604 0 0 4.48596 0 10C0 15.514 4.48604 20 10.0001 20C15.514 20 20.0001 15.514 20.0001 10C20.0001 4.48596 15.514 0 10.0001 0ZM10.0001 17.1024C6.07743 17.1024 2.89755 13.9227 2.89755 10C2.89755 6.07735 6.07743 2.89755 10.0001 2.89755C13.9226 2.89755 17.1025 6.07735 17.1025 10C17.1025 13.9227 13.9225 17.1024 10.0001 17.1024Z" fill="black"/>
<path d="M10.0001 3.81702C6.59072 3.81702 3.81708 6.59066 3.81708 9.99997C3.81708 13.4093 6.5908 16.1829 10.0001 16.1829C13.4094 16.1829 16.1831 13.4093 16.1831 9.99997C16.1831 6.59066 13.4093 3.81702 10.0001 3.81702ZM15.3913 9.60576H12.3912C12.33 9.22663 12.1802 8.87697 11.9642 8.57807L14.0821 6.46014C14.8256 7.3163 15.3043 8.40725 15.3913 9.60576ZM10.388 4.60827C11.5858 4.69368 12.6764 5.17056 13.533 5.91192L11.4156 8.02945C11.1167 7.81353 10.7671 7.66384 10.388 7.60255V4.60827ZM9.61211 4.60827V7.60247C9.23306 7.66376 8.8834 7.81345 8.58449 8.02945L6.46696 5.912C7.32359 5.17064 8.4143 4.69368 9.61211 4.60827ZM5.9178 6.46022L8.0358 8.57815C7.8198 8.87697 7.67011 9.22663 7.60882 9.60568H4.60881C4.69579 8.40725 5.17447 7.31638 5.9178 6.46022ZM4.60794 10.3816H7.6089C7.67011 10.7607 7.81987 11.1103 8.03588 11.4092L5.91206 13.533C5.16936 12.6748 4.6921 11.5819 4.60794 10.3816ZM9.61211 15.3917C8.41108 15.306 7.31793 14.8269 6.4602 14.0821L8.58449 11.9578C8.8834 12.1738 9.23306 12.3235 9.61211 12.3848V15.3917ZM9.61211 11.5866V11.5923C9.44466 11.5516 9.28751 11.4854 9.14435 11.3979L9.14804 11.3942C8.9241 11.2577 8.73599 11.0695 8.59942 10.8455L8.59581 10.8491C8.50828 10.706 8.44211 10.5489 8.40141 10.3815H8.40699C8.37674 10.2569 8.35898 10.1274 8.35898 9.99353C8.35898 9.85964 8.37682 9.73014 8.40699 9.6056H8.40141C8.44211 9.43824 8.5082 9.28116 8.59581 9.138L8.59942 9.14161C8.73599 8.91767 8.92418 8.72948 9.14804 8.593L9.14435 8.58931C9.28751 8.50177 9.44466 8.43553 9.61211 8.39491V8.40057C9.73673 8.37032 9.86614 8.35248 10.0001 8.35248C10.1341 8.35248 10.2635 8.37032 10.3881 8.40057V8.39491C10.5556 8.43561 10.7126 8.50169 10.8557 8.58923L10.852 8.59292C11.076 8.72941 11.2642 8.91759 11.4007 9.14153L11.4043 9.13792C11.4919 9.28108 11.5581 9.43824 11.5988 9.60568H11.5932C11.6235 9.73022 11.6412 9.85971 11.6412 9.99361C11.6412 10.1275 11.6234 10.257 11.5932 10.3815H11.5988C11.5581 10.549 11.492 10.7061 11.4043 10.8493L11.4007 10.8457C11.2642 11.0696 11.076 11.2577 10.852 11.3943L10.8557 11.3979C10.7126 11.4854 10.5556 11.5516 10.3881 11.5923V11.5866C10.2635 11.6169 10.1341 11.6347 10.0001 11.6347C9.86614 11.6347 9.73673 11.617 9.61211 11.5866ZM10.388 15.3917V12.3848C10.7671 12.3235 11.1167 12.1738 11.4156 11.9579L13.5398 14.0821C12.6821 14.8269 11.589 15.306 10.388 15.3917ZM14.088 13.533L11.9643 11.4093C12.1803 11.1104 12.33 10.7607 12.3913 10.3816H15.3922C15.308 11.5819 14.8308 12.6748 14.088 13.533Z" fill="black"/>
</svg>
