<svg width="24" height="24" viewBox="0 0 24 24" fill="none" xmlns="http://www.w3.org/2000/svg">
<path d="M23.5083 1.17717L23.2446 0.526205C23.0701 0.0956996 22.578 -0.112709 22.1475 0.0617148L18.1323 1.68825C17.7487 1.84369 17.4768 2.17979 17.405 2.58728L14.7489 17.6505C14.4984 17.7073 14.2574 17.7939 14.0302 17.9067L15.595 9.0322C15.6239 8.86794 15.5872 8.70219 15.4916 8.56555C15.3959 8.42891 15.2527 8.33773 15.0885 8.30877L4.76334 6.48817C4.59923 6.45929 4.43343 6.49599 4.29678 6.59162C4.16014 6.68729 4.06902 6.83045 4.04005 6.99466L3.14655 12.0624C3.1128 12.2536 3.24049 12.4359 3.4317 12.4696C3.45237 12.4733 3.4729 12.475 3.4932 12.475C3.66059 12.475 3.8089 12.355 3.839 12.1844L4.7189 7.19435L7.52778 7.68963L6.90489 11.2221C6.84817 11.5436 7.06366 11.8514 7.38518 11.9081L10.7469 12.5009C10.7816 12.507 10.8164 12.51 10.851 12.51C10.9714 12.51 11.0887 12.4733 11.1894 12.4028C11.319 12.3121 11.4054 12.1763 11.4329 12.0206L12.0558 8.48802L14.8889 8.98757L13.217 18.4695C13.2162 18.4742 13.2159 18.4788 13.2153 18.4835C13.0288 18.6645 12.8636 18.8685 12.7245 19.0922L2.92563 17.3644L3.56187 13.756C3.59562 13.5648 3.46793 13.3825 3.27673 13.3488C3.08524 13.3151 2.90317 13.4428 2.86947 13.634L2.23323 17.2424L1.54106 17.1203C1.31939 17.0812 1.09584 17.1308 0.911573 17.2598C0.727211 17.3889 0.604163 17.5821 0.565116 17.8036L0.443145 18.4952C0.404051 18.7169 0.453599 18.9405 0.582694 19.1248C0.711789 19.3091 0.90487 19.4321 1.1265 19.4712L6.72522 20.4584C6.74589 20.4621 6.76642 20.4638 6.78672 20.4638C6.95411 20.4638 7.10243 20.3438 7.13252 20.1732C7.16627 19.982 7.03858 19.7997 6.84738 19.766L1.24865 18.7788C1.1992 18.7701 1.17108 18.7391 1.1587 18.7215C1.14633 18.7039 1.12692 18.6669 1.13564 18.6174L1.25761 17.9258C1.26637 17.8763 1.29726 17.8482 1.31489 17.8359C1.33256 17.8235 1.36969 17.804 1.419 17.8128L9.70796 19.2744L9.53761 20.2404L8.4141 20.0423C8.22275 20.0087 8.04055 20.1363 8.00684 20.3275C7.97314 20.5187 8.10078 20.7011 8.29199 20.7348L12.3081 21.4429C12.3959 21.8638 12.5685 22.2666 12.8225 22.6293C13.3149 23.3326 14.0517 23.802 14.8972 23.951C15.0852 23.9842 15.2722 24.0002 15.4569 24.0002C16.9864 24.0002 18.3459 22.9012 18.6205 21.3439C18.8581 19.9966 18.2147 18.6946 17.1063 18.029L18.2899 11.3161C18.3237 11.1249 18.196 10.9425 18.0048 10.9088C17.8133 10.8752 17.6312 11.0028 17.5975 11.194L16.4453 17.7286C16.3057 17.6835 16.1618 17.6467 16.0134 17.6206C15.8332 17.5889 15.654 17.5737 15.4768 17.5724L17.2112 7.73595L18.1772 7.90629L17.8723 9.63586C17.8385 9.82706 17.9662 10.0094 18.1574 10.0431C18.3489 10.077 18.531 9.94917 18.5647 9.75792L19.6412 3.65271L23.0438 2.27433C23.4742 2.09986 23.6826 1.60772 23.5083 1.17717ZM10.7598 11.7892L7.6166 11.235L8.2168 7.83124L11.3599 8.38545L10.7598 11.7892ZM10.4003 19.3964L12.412 19.7511C12.36 19.9043 12.3189 20.0634 12.29 20.2276C12.2612 20.3909 12.2453 20.5544 12.2415 20.7171L10.2299 20.3624L10.4003 19.3964ZM15.8912 18.3129C17.2546 18.5534 18.1683 19.8582 17.928 21.2217C17.6875 22.5852 16.3828 23.4989 15.0191 23.2585C14.3586 23.142 13.783 22.7753 13.3983 22.2259C13.0137 21.6765 12.866 21.0102 12.9824 20.3497C13.197 19.133 14.2589 18.2746 15.454 18.2746C15.5982 18.2746 15.7444 18.2871 15.8912 18.3129ZM22.7798 1.62258L19.1967 3.07403C19.0844 3.1195 19.0035 3.21953 18.9825 3.33883L18.2993 7.21375L17.3332 7.04341L18.0974 2.70934C18.1269 2.5419 18.2387 2.4038 18.3963 2.33991L22.4115 0.713379C22.4826 0.684597 22.5641 0.719004 22.5929 0.790208L22.8566 1.44112C22.8854 1.51233 22.8509 1.5937 22.7798 1.62258Z" fill="black"/>
<path d="M13.8683 20.5058C13.7935 20.9297 13.8883 21.3573 14.1352 21.7099C14.3821 22.0625 14.7514 22.2978 15.1753 22.3725C15.2696 22.3891 15.3633 22.3972 15.4559 22.3972C16.2226 22.3972 16.9043 21.8462 17.0419 21.0654C17.1962 20.1904 16.6099 19.3531 15.7349 19.1988C14.8605 19.0447 14.0226 19.6309 13.8683 20.5058ZM14.5607 20.628C14.6383 20.1879 15.0225 19.8773 15.4547 19.8773C15.5069 19.8773 15.5597 19.8819 15.6129 19.8912C16.106 19.9782 16.4365 20.4502 16.3496 20.9433C16.3075 21.1823 16.1748 21.3904 15.9761 21.5296C15.7773 21.6688 15.5361 21.7223 15.2974 21.68C15.0585 21.6379 14.8503 21.5052 14.7112 21.3065C14.572 21.1079 14.5186 20.8669 14.5607 20.628Z" fill="black"/>
<path d="M15.3484 21.1239L15.3941 21.132C15.4148 21.1356 15.4353 21.1374 15.4556 21.1374C15.623 21.1374 15.7714 21.0173 15.8014 20.8468C15.8352 20.6555 15.7075 20.4732 15.5163 20.4395L15.4706 20.4314C15.2797 20.3979 15.0971 20.5254 15.0633 20.7166C15.0295 20.9079 15.1572 21.0902 15.3484 21.1239Z" fill="black"/>
<path d="M4.92021 16.7759C4.94084 16.7796 4.96142 16.7813 4.98171 16.7813C5.1491 16.7813 5.29742 16.6612 5.32751 16.4907L5.42192 15.9555L5.45239 15.9963C5.52148 16.0887 5.62718 16.1375 5.73434 16.1375C5.80756 16.1375 5.88134 16.1147 5.94448 16.0675C6.10001 15.9513 6.13189 15.731 6.01573 15.5755L5.4986 14.8833C5.38737 14.7344 5.17953 14.6977 5.02427 14.7996L4.3016 15.2732C4.13918 15.3796 4.0938 15.5976 4.20021 15.76C4.30666 15.9224 4.52454 15.9678 4.68696 15.8613L4.72957 15.8334L4.63516 16.3686C4.60132 16.5598 4.72901 16.7421 4.92021 16.7759Z" fill="black"/>
<path d="M7.39439 17.2122C7.41507 17.2158 7.4356 17.2176 7.45589 17.2176C7.62328 17.2176 7.7716 17.0975 7.80169 16.927L7.89605 16.3918L7.92652 16.4326C7.99561 16.525 8.10132 16.5738 8.20847 16.5738C8.28169 16.5738 8.35547 16.551 8.41861 16.5039C8.57414 16.3877 8.60602 16.1673 8.48986 16.0118L7.97274 15.3196C7.8615 15.1708 7.6538 15.1341 7.49841 15.2359L6.77569 15.7095C6.61327 15.816 6.56789 16.0338 6.6743 16.1963C6.78075 16.3587 6.99863 16.404 7.16105 16.2977L7.20371 16.2697L7.10935 16.8049C7.0755 16.9961 7.20319 17.1785 7.39439 17.2122Z" fill="black"/>
</svg>
