<svg width="19" height="17" viewBox="0 0 19 17" fill="none" xmlns="http://www.w3.org/2000/svg">
<path d="M15.8173 5.84588C15.2657 5.84743 14.7281 6.01956 14.2781 6.33867C13.8282 6.65777 13.488 7.10824 13.3041 7.62831H1.55784C1.32148 7.62831 1.09479 7.72221 0.927658 7.88934C0.760522 8.05648 0.666626 8.28317 0.666626 8.51953C0.666626 8.7559 0.760522 8.98258 0.927658 9.14972C1.09479 9.31685 1.32148 9.41075 1.55784 9.41075H13.3041C13.4676 9.87318 13.7552 10.2817 14.1353 10.5917C14.5154 10.9016 14.9735 11.101 15.4594 11.1681C15.9453 11.2351 16.4402 11.1672 16.8901 10.9718C17.34 10.7764 17.7274 10.461 18.01 10.0601C18.2927 9.65921 18.4596 9.18831 18.4925 8.69893C18.5254 8.20955 18.423 7.72055 18.1967 7.28544C17.9703 6.85033 17.6285 6.48588 17.2089 6.23198C16.7892 5.97807 16.3078 5.8445 15.8173 5.84588ZM1.55784 4.06344H2.60948C2.79682 4.57959 3.13853 5.02555 3.58819 5.3407C4.03784 5.65585 4.57362 5.82491 5.12272 5.82491C5.67181 5.82491 6.2076 5.65585 6.65725 5.3407C7.1069 5.02555 7.44862 4.57959 7.63595 4.06344H17.5998C17.8361 4.06344 18.0628 3.96954 18.23 3.80241C18.3971 3.63527 18.491 3.40859 18.491 3.17222C18.491 2.93586 18.3971 2.70917 18.23 2.54204C18.0628 2.3749 17.8361 2.281 17.5998 2.281H7.63595C7.44862 1.76485 7.1069 1.3189 6.65725 1.00375C6.2076 0.688595 5.67181 0.519531 5.12272 0.519531C4.57362 0.519531 4.03784 0.688595 3.58819 1.00375C3.13853 1.3189 2.79682 1.76485 2.60948 2.281H1.55784C1.32148 2.281 1.09479 2.3749 0.927658 2.54204C0.760522 2.70917 0.666626 2.93586 0.666626 3.17222C0.666626 3.40859 0.760522 3.63527 0.927658 3.80241C1.09479 3.96954 1.32148 4.06344 1.55784 4.06344ZM17.5998 12.9756H11.2008C11.0135 12.4595 10.6718 12.0135 10.2221 11.6984C9.77247 11.3832 9.23669 11.2142 8.68759 11.2142C8.13849 11.2142 7.60271 11.3832 7.15306 11.6984C6.70341 12.0135 6.36169 12.4595 6.17436 12.9756H1.55784C1.32148 12.9756 1.09479 13.0695 0.927658 13.2367C0.760522 13.4038 0.666626 13.6305 0.666626 13.8668C0.666626 14.1032 0.760522 14.3299 0.927658 14.497C1.09479 14.6642 1.32148 14.7581 1.55784 14.7581H6.17436C6.36169 15.2742 6.70341 15.7202 7.15306 16.0353C7.60271 16.3505 8.13849 16.5195 8.68759 16.5195C9.23669 16.5195 9.77247 16.3505 10.2221 16.0353C10.6718 15.7202 11.0135 15.2742 11.2008 14.7581H17.5998C17.8361 14.7581 18.0628 14.6642 18.23 14.497C18.3971 14.3299 18.491 14.1032 18.491 13.8668C18.491 13.6305 18.3971 13.4038 18.23 13.2367C18.0628 13.0695 17.8361 12.9756 17.5998 12.9756Z" fill="white"/>
</svg>
