<svg width="64" height="64" viewBox="0 0 64 64" fill="none" xmlns="http://www.w3.org/2000/svg">
<path d="M32 8C21.78 8 13.234 14.32 9.75 23.25L13.438 24.75C16.352 17.28 23.42 12 32 12C38.48 12 44.268 15.18 47.876 20H40V24H54V10H50V16.188C47.7596 13.6156 44.9935 11.5536 41.8884 10.1411C38.7832 8.72862 35.4113 7.9985 32 8V8ZM50.56 39.25C47.648 46.72 40.58 52 32 52C25.448 52 19.686 48.776 16.06 44H24V40H10V54H14V47.812C18.38 52.772 24.79 56 32 56C42.22 56 50.766 49.68 54.25 40.75L50.562 39.25H50.56Z" fill="#03808B"/>
</svg>
