<svg width="13" height="16" viewBox="0 0 13 16" fill="none" xmlns="http://www.w3.org/2000/svg">
<path d="M0.888889 14.2222C0.888889 14.6937 1.07619 15.1459 1.40959 15.4793C1.74299 15.8127 2.19517 16 2.66667 16H9.77778C10.2493 16 10.7015 15.8127 11.0349 15.4793C11.3683 15.1459 11.5556 14.6937 11.5556 14.2222V3.55556H0.888889V14.2222ZM3.07556 7.89333L4.32889 6.64L6.22222 8.52444L8.10667 6.64L9.36 7.89333L7.47556 9.77778L9.36 11.6622L8.10667 12.9156L6.22222 11.0311L4.33778 12.9156L3.08444 11.6622L4.96889 9.77778L3.07556 7.89333ZM9.33333 0.888889L8.44444 0H4L3.11111 0.888889H0V2.66667H12.4444V0.888889H9.33333Z" fill="white"/>
</svg>
