<svg width="30" height="20" viewBox="0 0 30 20" fill="none" xmlns="http://www.w3.org/2000/svg">
<path d="M29.0465 5.77313C28.9457 5.77313 28.8422 5.78749 28.7388 5.81599L27.5698 6.13802L26.3558 3.18098C26.012 2.34328 24.9954 1.66177 24.0899 1.66177H12.7294C11.8239 1.66177 10.8074 2.34328 10.4634 3.18098L9.55665 5.39042C9.56999 5.24378 9.57746 5.09587 9.57746 4.9467C9.57746 3.23292 8.6523 1.63925 7.16287 0.787301C7.08368 0.74202 6.99197 0.718115 6.8975 0.718115C6.5972 0.718115 6.37068 0.952449 6.37068 1.2616C6.37068 1.2616 6.36137 3.65884 6.3616 4.4578C6.36149 4.54158 6.26139 4.64134 6.21967 4.67145L6.18967 4.69397C5.71043 5.09265 5.10615 5.54178 4.83907 5.68073C4.82229 5.68061 4.80597 5.68015 4.78873 5.68015C4.77034 5.68015 4.75299 5.68061 4.73506 5.68073C4.46418 5.54155 3.85013 5.08461 3.36376 4.67834L3.33331 4.65536C3.33204 4.65455 3.21551 4.56112 3.21551 4.38115C3.21551 3.54954 3.20712 1.26344 3.20712 1.26344C3.20677 0.903261 2.94877 0.714783 2.69409 0.714783C2.5956 0.714783 2.49389 0.741905 2.40701 0.791553C0.92228 1.64465 0 3.23671 0 4.94658C0 6.95204 1.2397 8.67248 2.99267 9.38456L2.99244 17.5384C2.99244 18.5015 3.77589 19.285 4.73897 19.285H4.83838C5.80145 19.285 6.5849 18.5015 6.5849 17.5384L6.58513 9.38766C7.17298 9.14988 7.7129 8.79476 8.1749 8.33275C8.28707 8.22059 8.3928 8.10394 8.49221 7.98304L8.00332 9.1739C7.68382 9.95206 7.42375 11.2697 7.42375 12.1112V17.9856C7.42375 18.6644 7.97608 19.2167 8.65483 19.2167H10.2626C10.9414 19.2167 11.4937 18.6645 11.4937 17.9856V16.5186H25.3259V17.9856C25.3259 18.6644 25.8782 19.2167 26.5569 19.2167H28.1645C28.8433 19.2167 29.3956 18.6645 29.3956 17.9856V12.1112C29.3956 11.2698 29.1356 9.95217 28.8161 9.1739L28.6202 8.69661H28.7688C29.4476 8.69661 29.9999 8.14439 29.9999 7.46553V6.77643C30 6.19513 29.599 5.77313 29.0465 5.77313ZM10.1342 8.02832L11.9704 3.55552C12.176 3.05444 12.7876 2.6445 13.3292 2.6445H23.4907C24.0324 2.6445 24.6439 3.05444 24.8495 3.55552L26.6858 8.02832C26.8914 8.52939 26.6165 8.93933 26.0749 8.93933H10.745C10.2033 8.93933 9.92855 8.52939 10.1342 8.02832ZM14.2332 13.6857C14.2332 13.9564 14.0116 14.1781 13.7409 14.1781H10.2525C9.98176 14.1781 9.76019 13.9565 9.76019 13.6857V12.0116C9.76019 11.7409 9.98176 11.5192 10.2525 11.5192H13.7409C14.0116 11.5192 14.2332 11.7408 14.2332 12.0116V13.6857ZM27.0265 13.6857C27.0265 13.9564 26.8049 14.1781 26.5342 14.1781H23.046C22.7752 14.1781 22.5536 13.9565 22.5536 13.6857V12.0116C22.5536 11.7409 22.7752 11.5192 23.046 11.5192H26.5342C26.8049 11.5192 27.0265 11.7408 27.0265 12.0116V13.6857Z" fill="black"/>
</svg>
