<svg width="16" height="17" viewBox="0 0 16 17" fill="none" xmlns="http://www.w3.org/2000/svg">
<path d="M8 5.35761C7.43486 5.35761 6.88241 5.52519 6.41252 5.83916C5.94262 6.15314 5.57638 6.5994 5.36012 7.12152C5.14385 7.64364 5.08726 8.21817 5.19751 8.77245C5.30777 9.32673 5.57991 9.83586 5.97952 10.2355C6.37913 10.6351 6.88827 10.9072 7.44255 11.0175C7.99683 11.1277 8.57136 11.0712 9.09348 10.8549C9.6156 10.6386 10.0619 10.2724 10.3758 9.80248C10.6898 9.33258 10.8574 8.78014 10.8574 8.215C10.8551 7.45787 10.5534 6.73239 10.018 6.19701C9.48261 5.66164 8.75713 5.35987 8 5.35761ZM14.1691 8.215C14.1676 8.48199 14.148 8.74858 14.1105 9.01292L15.8496 10.3745C15.9254 10.437 15.9764 10.5244 15.9936 10.6212C16.0108 10.7179 15.9931 10.8175 15.9435 10.9024L14.2984 13.7426C14.2484 13.8267 14.1703 13.8905 14.078 13.9227C13.9856 13.9549 13.8848 13.9535 13.7934 13.9187L11.7485 13.0972C11.3227 13.4251 10.8568 13.6972 10.362 13.9069L10.0562 16.0778C10.0391 16.1751 9.98879 16.2633 9.9138 16.3276C9.83882 16.3918 9.74386 16.428 9.64514 16.43H6.35486C6.25794 16.4281 6.16452 16.3934 6.08985 16.3316C6.01519 16.2698 5.96368 16.1845 5.94375 16.0896L5.63801 13.9187C5.14185 13.7114 4.67555 13.4389 4.25146 13.1083L2.20664 13.9298C2.11524 13.9646 2.01449 13.966 1.92212 13.9339C1.82975 13.9017 1.75166 13.8381 1.7016 13.754L0.0564545 10.9142C0.00693511 10.8293 -0.0108054 10.7297 0.00640307 10.6329C0.0236116 10.5362 0.0746478 10.4488 0.150391 10.3863L1.88947 9.02471C1.85238 8.75637 1.83281 8.48589 1.83089 8.215C1.83238 7.948 1.85195 7.68142 1.88947 7.41707L0.150391 6.05552C0.0746478 5.99298 0.0236116 5.90554 0.00640307 5.80884C-0.0108054 5.71213 0.00693511 5.61245 0.0564545 5.52762L1.7016 2.68738C1.75161 2.60329 1.82967 2.53954 1.92204 2.50734C2.01442 2.47513 2.1152 2.47653 2.20664 2.51129L4.25146 3.33279C4.67725 3.00491 5.14321 2.7328 5.63801 2.52308L5.94375 0.352173C5.96086 0.254933 6.01121 0.166652 6.0862 0.102418C6.16118 0.0381831 6.25614 0.00198186 6.35486 0H9.64514C9.74206 0.00188642 9.83548 0.0365715 9.91014 0.098393C9.98481 0.160214 10.0363 0.245521 10.0562 0.340387L10.362 2.51129C10.8588 2.71844 11.3257 2.99099 11.7503 3.32172L13.7934 2.50022C13.8848 2.46542 13.9855 2.46397 14.0779 2.49611C14.1703 2.52825 14.2483 2.59193 14.2984 2.67595L15.9435 5.51619C15.9931 5.60102 16.0108 5.7007 15.9936 5.79741C15.9764 5.89412 15.9254 5.98155 15.8496 6.0441L14.1105 7.40564C14.1476 7.67387 14.1672 7.94423 14.1691 8.215Z" fill="black"/>
</svg>
