<svg width="20" height="16" viewBox="0 0 20 16" fill="none" xmlns="http://www.w3.org/2000/svg">
<path d="M6.07347 7.02136H1.33563C1.17628 7.02136 1.04706 7.15055 1.04706 7.30993V9.46442C1.04706 9.62381 1.17628 9.75307 1.33563 9.75307H6.07347C6.23285 9.75307 6.36208 9.62381 6.36208 9.46442V7.30993C6.36208 7.15055 6.23285 7.02136 6.07347 7.02136Z" fill="#6C808F"/>
<path d="M15.383 7.82623H13.6743C13.606 7.82623 13.5507 7.88162 13.5507 7.94995V9.6586C13.5507 9.72688 13.606 9.78227 13.6743 9.78227H15.383C15.4512 9.78227 15.5066 9.72688 15.5066 9.6586V7.94995C15.5066 7.88162 15.4512 7.82623 15.383 7.82623Z" fill="#6C808F"/>
<path d="M12.642 7.82623H10.9334C10.865 7.82623 10.8097 7.88162 10.8097 7.94995V9.6586C10.8097 9.72688 10.865 9.78227 10.9334 9.78227H12.642C12.7104 9.78227 12.7658 9.72688 12.7658 9.6586V7.94995C12.7658 7.88162 12.7104 7.82623 12.642 7.82623Z" fill="#6C808F"/>
<path d="M9.90101 7.82623H8.19244C8.12407 7.82623 8.06873 7.88162 8.06873 7.94995V9.6586C8.06873 9.72688 8.12407 9.78227 8.19244 9.78227H9.90101C9.9693 9.78227 10.0246 9.72688 10.0246 9.6586V7.94995C10.0247 7.88162 9.9693 7.82623 9.90101 7.82623Z" fill="#6C808F"/>
<path d="M12.642 5.26331H10.9334C10.865 5.26331 10.8097 5.31869 10.8097 5.38698V7.09563C10.8097 7.16392 10.865 7.21931 10.9334 7.21931H12.642C12.7104 7.21931 12.7658 7.16392 12.7658 7.09563V5.38698C12.7658 5.31869 12.7104 5.26331 12.642 5.26331Z" fill="#6C808F"/>
<path d="M9.90101 5.26331H8.19244C8.12407 5.26331 8.06873 5.31869 8.06873 5.38698V7.09563C8.06873 7.16392 8.12407 7.21931 8.19244 7.21931H9.90101C9.9693 7.21931 10.0246 7.16392 10.0246 7.09563V5.38698C10.0247 5.31869 9.9693 5.26331 9.90101 5.26331Z" fill="#6C808F"/>
<path d="M4.47455 4.15588H2.93455C2.84349 4.15588 2.76965 4.22976 2.76965 4.32082V6.27405C2.76965 6.36511 2.84349 6.43899 2.93455 6.43899H4.47455C4.56565 6.43899 4.63945 6.36515 4.63945 6.27405V4.32082C4.63945 4.22976 4.56561 4.15588 4.47455 4.15588Z" fill="#6C808F"/>
<path d="M4.47455 2.81095H3.9519V1.01944C3.9519 0.882829 3.84112 0.772095 3.70451 0.772095C3.56786 0.772095 3.45712 0.882829 3.45712 1.01944V2.81095H2.93455C2.84349 2.81095 2.76965 2.88479 2.76965 2.97589V3.40854C2.76965 3.49956 2.84349 3.57344 2.93455 3.57344H4.47455C4.56565 3.57344 4.63945 3.49956 4.63945 3.40854V2.97589C4.63945 2.88479 4.56561 2.81095 4.47455 2.81095Z" fill="#6C808F"/>
<path d="M19.987 9.87883C19.9689 9.84617 19.9344 9.82593 19.897 9.82593H16.6101C16.5784 9.82593 16.5484 9.84054 16.5289 9.86552L16.093 10.4232H0.103039C0.068753 10.4232 0.0367938 10.4402 0.0175693 10.4687C-0.00157358 10.4971 -0.00541031 10.5332 0.00744683 10.5649C0.00744683 10.5649 1.40365 14.0142 1.8699 15.1636C1.88569 15.2025 1.92349 15.228 1.96545 15.228H16.673C16.7088 15.228 16.7451 15.2156 16.7675 15.1792C17.5691 13.8785 19.9846 9.98328 19.9846 9.98328C20.0042 9.95148 20.0052 9.91152 19.987 9.87883ZM13.4212 12.459C13.1978 12.459 13.0166 12.2778 13.0166 12.0543C13.0166 11.8308 13.1978 11.6496 13.4212 11.6496C13.6448 11.6496 13.826 11.8308 13.826 12.0543C13.826 12.2778 13.6448 12.459 13.4212 12.459ZM15.383 12.459C15.1594 12.459 14.9782 12.2778 14.9782 12.0543C14.9782 11.8308 15.1594 11.6496 15.383 11.6496C15.6064 11.6496 15.7875 11.8308 15.7875 12.0543C15.7875 12.2778 15.6063 12.459 15.383 12.459Z" fill="#6C808F"/>
</svg>
