<svg width="168" height="168" viewBox="0 0 168 168" fill="none" xmlns="http://www.w3.org/2000/svg">
<path d="M167.6 99.3C166.9 99.2 166.2 99.1 165.5 99C165.5 98.4 165.5 97.8 165.5 97.2C165.5 96.6 165.4 96 165.3 95.4C166 95.2 166.7 95.1 167.3 94.9C167.6 94.8 167.7 94.6 167.6 94.2C167.5 93.8 167.4 93.4 167.3 93.1C167.2 92.7 167.1 92.4 166.9 92C166.8 91.7 166.5 91.5 166.3 91.6C165.6 91.8 165 92 164.3 92.2C164.1 91.6 163.8 91.1 163.5 90.6C163.2 90.1 162.9 89.6 162.6 89.1C163.1 88.7 163.7 88.2 164.2 87.8C164.4 87.6 164.4 87.3 164.2 87.1C163.7 86.5 163.2 85.9 162.6 85.4C162.4 85.2 162 85.2 161.9 85.4C161.4 85.9 160.9 86.4 160.4 86.8C160 86.4 159.5 86 159 85.7C158.5 85.4 158 85 157.5 84.8C157.8 84.2 158.1 83.5 158.4 82.9C158.5 82.7 158.4 82.4 158.1 82.2C157.4 81.9 156.7 81.6 156 81.3C155.7 81.2 155.4 81.3 155.3 81.6C155 82.2 154.8 82.9 154.5 83.6C153.9 83.4 153.4 83.3 152.8 83.2C152.7 83.2 152.5 83.2 152.4 83.2C152.7 80.7 152.9 78.2 152.9 75.6C152.9 39.9 124 11 88.3 11C81.1 11 74.2 12.2 67.7 14.4C67.7 14.2 67.7 13.9 67.7 13.7C67.7 13.2 67.6 12.8 67.6 12.3C68.1 12.2 68.7 12 69.2 11.9C69.4 11.9 69.5 11.6 69.5 11.4C69.4 10.8 69.2 10.2 69 9.6C69 9.1 68.8 9 68.6 9.1C68 9.2 67.5 9.4 67 9.6C66.8 9.2 66.6 8.7 66.4 8.3C66.2 7.9 65.9 7.5 65.7 7.1C66.1 6.8 66.6 6.4 67 6C67.2 5.9 67.2 5.6 67 5.4C66.6 4.9 66.2 4.5 65.8 4C65.6 3.8 65.3 3.8 65.2 4C64.8 4.4 64.4 4.8 64 5.1C63.6 4.8 63.3 4.5 62.9 4.2C62.5 3.9 62.1 3.7 61.7 3.4C61.9 2.9 62.2 2.4 62.4 1.9C62.5 1.7 62.4 1.5 62.2 1.4C61.6 1.2 61 1 60.4 0.8C60.2 0.7 59.9 0.8 59.9 1C59.7 1.5 59.5 2 59.3 2.6C58.8 2.5 58.4 2.4 57.9 2.3C57.4 2.2 57 2.2 56.5 2.2C56.5 1.6 56.5 1.1 56.5 0.5C56.5 0.2 56.3 0 56 0C55.4 0 54.8 0 54.1 0.1C53.8 0.1 53.7 0.3 53.7 0.5C53.7 1.1 53.8 1.6 53.8 2.2C53.3 2.3 52.9 2.4 52.4 2.5C52 2.6 51.5 2.8 51.1 3C50.8 2.5 50.6 2 50.3 1.5C50.2 1.3 50 1.2 49.7 1.3C49.1 1.6 48.6 1.8 48.1 2.2C47.9 2.3 47.8 2.6 47.9 2.8C48.2 3.3 48.5 3.8 48.7 4.2C48.3 4.5 47.9 4.8 47.6 5.1C47.3 5.4 46.9 5.8 46.6 6.1C46.2 5.8 45.7 5.4 45.3 5.1C45.1 5 44.9 5 44.7 5.2C44.3 5.7 43.9 6.2 43.6 6.7C43.5 6.9 43.5 7.2 43.7 7.3C44.2 7.6 44.6 7.9 45.1 8.2C44.9 8.6 44.7 9 44.5 9.5C44.3 9.9 44.2 10.4 44 10.8C43.5 10.7 42.9 10.6 42.4 10.5C42.2 10.5 42 10.6 41.9 10.8C42.1 11 42 11.3 42 11.6C42 11.9 41.9 12.2 41.9 12.5C41.9 12.8 42 13 42.2 13C42.7 13.1 43.3 13.2 43.8 13.3C43.8 13.8 43.8 14.2 43.8 14.7C43.8 15.2 43.9 15.6 44 16.1C43.5 16.2 42.9 16.4 42.4 16.5C42.2 16.5 42.1 16.8 42.1 17C42.2 17.6 42.4 18.2 42.6 18.8C42.7 19 42.9 19.2 43.1 19.1C43.6 18.9 44.2 18.8 44.7 18.6C44.9 19 45.1 19.4 45.3 19.9C45.5 20.3 45.8 20.7 46 21.1C45.6 21.4 45.2 21.8 44.7 22.2C44.5 22.3 44.5 22.6 44.7 22.8C45.1 23.3 45.5 23.8 45.9 24.2C46.1 24.4 46.4 24.4 46.5 24.2C46.9 23.8 47.3 23.4 47.7 23.1C48 23.4 48.4 23.7 48.8 24C48.9 24.1 49.1 24.2 49.2 24.3C36.5 34 27.5 48.4 24.7 64.9C24.4 64.7 24.2 64.5 23.9 64.3C23.5 64 23 63.7 22.6 63.4C22.9 62.8 23.1 62.2 23.4 61.7C23.5 61.5 23.4 61.2 23.1 61.1C22.5 60.8 21.8 60.5 21.2 60.3C20.9 60.2 20.6 60.3 20.6 60.6C20.4 61.2 20.1 61.8 19.9 62.4C19.4 62.2 18.9 62.1 18.3 62C17.8 61.9 17.2 61.8 16.7 61.8C16.7 61.2 16.7 60.5 16.7 59.9C16.7 59.7 16.5 59.5 16.2 59.5C15.5 59.5 14.8 59.5 14.1 59.6C13.8 59.6 13.6 59.9 13.7 60.1C13.7 60.7 13.8 61.4 13.8 62C13.3 62.1 12.8 62.2 12.2 62.4C11.7 62.5 11.2 62.7 10.7 62.9C10.4 62.3 10.1 61.8 9.8 61.2C9.7 61 9.4 60.9 9.1 61C8.5 61.3 7.8 61.6 7.3 62C7 62.2 7 62.5 7.1 62.6C7.4 63.1 7.7 63.7 8.1 64.2C7.7 64.5 7.2 64.8 6.8 65.2C6.4 65.6 6 65.9 5.7 66.3C5.2 65.9 4.7 65.5 4.2 65.2C4 65 3.7 65.1 3.5 65.3C3.1 65.8 2.6 66.4 2.3 67C2.2 67.3 2.2 67.5 2.4 67.7C3 67.8 3.5 68.1 4 68.5C3.7 69 3.5 69.5 3.3 69.9C3.1 70.4 2.9 70.9 2.8 71.4C2.2 71.3 1.6 71.1 0.9 71C0.7 70.9 0.4 71.1 0.4 71.4C0.2 72.1 0.1 72.8 0 73.5C0 73.8 0.2 74 0.4 74C1 74.1 1.7 74.2 2.3 74.3C2.3 74.8 2.3 75.4 2.3 75.9C2.3 76.4 2.4 77 2.5 77.5C1.9 77.7 1.3 77.8 0.7 78C0.5 78 0.3 78.3 0.4 78.6C0.5 78.9 0.6 79.3 0.7 79.6C0.8 79.9 0.9 80.3 1 80.6C1 80.9 1.2 81.1 1.4 81C2 80.8 2.6 80.6 3.2 80.4C3.4 80.9 3.6 81.4 3.9 81.8C4.2 82.3 4.4 82.7 4.8 83.2C4.3 83.6 3.8 84 3.3 84.4C3.1 84.5 3.1 84.8 3.3 85.1C3.7 85.6 4.2 86.2 4.7 86.7C4.9 86.9 5.2 86.9 5.4 86.7C5.9 86.3 6.3 85.8 6.8 85.4C7.2 85.8 7.6 86.1 8.1 86.4C8.5 86.7 9 87 9.5 87.3C9.2 87.9 9 88.5 8.7 89C8.6 89.2 8.7 89.5 9 89.6C9.6 89.9 10.3 90.2 10.9 90.4C11.2 90.5 11.5 90.4 11.5 90.1C11.7 89.5 12 88.9 12.2 88.3C12.7 88.5 13.2 88.6 13.8 88.7C14.3 88.8 14.9 88.8 15.4 88.9C15.4 89.5 15.4 90.2 15.4 90.8C15.4 91 15.6 91.3 15.9 91.2C16.6 91.2 17.3 91.2 18 91.1C18.3 91.1 18.5 90.8 18.5 90.6C18.5 90 18.4 89.3 18.3 88.7C18.8 88.6 19.4 88.5 19.9 88.4C20.4 88.2 20.9 88.1 21.4 87.9C21.7 88.5 22 89 22.3 89.6C22.4 89.8 22.7 89.9 22.9 89.8C23.5 89.5 24.2 89.2 24.8 88.8C25.1 88.6 25.1 88.4 25 88.2C24.7 87.7 24.4 87.1 24 86.6C24.3 86.4 24.6 86.2 24.8 85.9C25.3 88.7 25.9 91.5 26.7 94.2C26 94 25.4 94 24.8 93.9C24.8 93.1 24.8 92.3 24.7 91.5C24.7 91.2 24.4 91 24.1 91C23.2 91 22.3 91 21.5 91.1C21.1 91.2 20.9 91.4 20.9 91.7C20.9 92.5 21 93.3 21.1 94.1C20.4 94.2 19.8 94.4 19.2 94.5C18.6 94.7 17.9 94.9 17.3 95.2C16.9 94.5 16.6 93.8 16.2 93.1C16.1 92.8 15.7 92.7 15.4 92.9C14.6 93.3 13.8 93.7 13.1 94.2C12.8 94.4 12.7 94.8 12.8 95C13.2 95.7 13.6 96.4 14 97C13.5 97.4 12.9 97.8 12.4 98.2C11.9 98.6 11.4 99.1 11 99.6C10.4 99.1 9.7 98.6 9.1 98.2C8.9 98 8.5 98.1 8.3 98.3C7.7 99 7.2 99.7 6.8 100.4C6.6 100.7 6.7 101.1 6.9 101.2C7.6 101.6 8.2 102.1 8.9 102.5C8.6 103.1 8.3 103.7 8 104.3C7.7 104.9 7.5 105.5 7.3 106.2C6.5 106 5.7 105.9 5 105.7C4.7 105.6 4.4 105.8 4.3 106.2C4.1 107.1 3.9 107.9 3.8 108.8C3.8 109.2 4 109.5 4.3 109.5C5.1 109.6 5.9 109.7 6.7 109.8C6.7 110.5 6.6 111.1 6.7 111.8C6.7 112.5 6.8 113.1 6.9 113.8C6.1 114 5.4 114.2 4.6 114.4C4.3 114.4 4.1 114.8 4.2 115.1C4.3 115.5 4.4 115.9 4.5 116.4C4.6 116.8 4.8 117.2 4.9 117.6C5 117.9 5.4 118.1 5.6 118C6.4 117.8 7.1 117.5 7.9 117.3C8.2 117.9 8.4 118.5 8.7 119.1C9 119.7 9.4 120.3 9.8 120.8C9.2 121.3 8.6 121.8 8 122.3C7.8 122.5 7.7 122.9 8 123.1C8.5 123.8 9.1 124.4 9.7 125.1C10 125.4 10.3 125.4 10.5 125.2C11.1 124.7 11.6 124.1 12.2 123.6C12.7 124 13.2 124.5 13.7 124.8C14.2 125.2 14.8 125.6 15.4 125.9C15.1 126.6 14.8 127.3 14.4 128.1C14.3 128.4 14.4 128.7 14.7 128.9C15.5 129.3 16.3 129.6 17.1 129.9C17.4 130 17.8 129.9 17.9 129.6C18.2 128.9 18.5 128.1 18.8 127.4C19.4 127.6 20.1 127.7 20.7 127.9C21.3 128 22 128.1 22.7 128.1C22.7 128.9 22.7 129.7 22.8 130.5C22.8 130.8 23.1 131 23.4 131C24.3 131 25.2 131 26 130.9C26.4 130.9 26.6 130.6 26.6 130.3C26.5 129.5 26.5 128.7 26.4 127.9C27.1 127.8 27.7 127.6 28.4 127.5C29 127.3 29.7 127.1 30.3 126.8C30.6 127.5 31 128.2 31.4 128.9C31.5 129.2 31.9 129.3 32.2 129.1C33 128.7 33.8 128.3 34.5 127.8C34.8 127.6 34.9 127.2 34.7 127C34.3 126.3 33.9 125.6 33.5 125C34 124.6 34.6 124.2 35.1 123.8C35.6 123.4 36.1 122.9 36.5 122.4C37.1 122.9 37.8 123.4 38.4 123.8C38.6 124 39 123.9 39.2 123.6C39.7 122.9 40.2 122.2 40.7 121.5C40.9 121.2 40.8 120.8 40.6 120.7C39.9 120.2 39.3 119.8 38.6 119.4C38.9 118.8 39.2 118.2 39.5 117.6C45.2 124.2 52.2 129.6 60.1 133.4C60.1 133.7 60.1 134.1 60.1 134.4C60.1 135.2 60.6 135.9 61.3 136H61.7C62.4 136 63.1 136.1 63.8 136.1C63.8 136.7 63.9 137.3 64 137.8C64.1 138.4 64.2 139 64.4 139.5C63.7 139.7 63.1 140 62.5 140.2C62.1 140.3 61.8 140.6 61.6 140.9C61.4 141.3 61.3 141.8 61.5 142.3C61.9 143.4 62.3 144.4 62.8 145.4C63.2 146.2 64.3 146.6 64.9 146.2C65.5 145.9 66.2 145.6 66.8 145.3C67.1 145.8 67.4 146.3 67.8 146.8C68.1 147.3 68.5 147.7 68.8 148.2C68.3 148.7 67.8 149.2 67.4 149.7C67.1 150 66.9 150.4 66.9 150.8C66.9 151.3 67.1 151.7 67.4 152.1C68.1 152.9 69 153.6 69.9 154.4C70.6 155 71.7 154.9 72.2 154.2C72.7 153.7 73.1 153.1 73.6 152.6C74.1 152.9 74.6 153.2 75.1 153.5C75.6 153.8 76.1 154 76.6 154.3C76.4 155 76.2 155.6 76 156.3C75.9 156.7 75.9 157.1 76 157.5C76.2 157.9 76.6 158.3 77 158.4C77.7 158.7 78.4 158.9 79.2 159.1C79.5 159.2 79.9 159.3 80.2 159.4C80.7 159.5 81.2 159.4 81.6 159.2C82 159 82.2 158.6 82.2 158.3C82.4 157.6 82.6 156.9 82.7 156.3C83.3 156.4 83.8 156.4 84.4 156.5C85 156.5 85.6 156.5 86.1 156.5C86.2 157.2 86.3 157.9 86.4 158.5C86.4 159.4 87.4 160 88.2 160C89.3 159.9 90.4 159.7 91.5 159.4C92 159.3 92.4 159 92.6 158.6C92.8 158.2 92.9 157.8 92.8 157.5C92.7 156.8 92.5 156.1 92.4 155.4C92.9 155.2 93.5 155 94 154.8C94.5 154.6 95 154.4 95.6 154.1C96 154.7 96.4 155.3 96.7 155.8C97.1 156.6 98.2 156.8 99 156.3C100 155.7 100.9 155.1 101.8 154.4C102.2 154.1 102.4 153.7 102.5 153.2C102.5 152.8 102.4 152.4 102.2 152.1C101.8 151.5 101.4 151 100.9 150.4C101.3 150 101.7 149.6 102.1 149.2C102.5 148.7 102.9 148.3 103.2 147.9C103.8 148.3 104.4 148.6 105 148.9C105.7 149.4 106.8 149.1 107.3 148.4C107.6 147.9 107.9 147.4 108.2 147C108.5 146.5 108.7 146 109 145.5C109.2 145.1 109.2 144.6 109.1 144.1C109 143.7 108.7 143.4 108.4 143.3C107.8 143 107.1 142.6 106.5 142.3C106.7 141.8 106.9 141.2 107 140.7C107.2 140.2 107.3 139.6 107.4 139C108.1 139.1 108.8 139.1 109.4 139.2C109.8 139.3 110.2 139.2 110.5 138.9C110.9 138.6 111.1 138.2 111.2 137.7C111.3 137.1 111.3 136.5 111.4 135.9C124.1 131 134.9 122.3 142.3 111C142.5 111.1 142.7 111.3 143 111.4C142.7 112 142.4 112.7 142.1 113.3C142 113.5 142.1 113.8 142.4 114C143.1 114.3 143.8 114.6 144.5 114.9C144.8 115 145.1 114.9 145.2 114.6C145.5 114 145.7 113.3 146 112.6C146.6 112.8 147.1 112.9 147.7 113C148.3 113.1 148.9 113.2 149.5 113.2C149.5 113.9 149.5 114.6 149.6 115.3C149.6 115.6 149.8 115.8 150.2 115.8C151 115.8 151.7 115.8 152.5 115.7C152.8 115.7 153 115.4 153 115.2C153 114.5 152.9 113.8 152.8 113.1C153.4 113 153.9 112.9 154.5 112.7C155.1 112.5 155.6 112.3 156.2 112.1C156.5 112.7 156.8 113.4 157.2 114C157.3 114.2 157.6 114.3 157.9 114.2C158.6 113.9 159.3 113.5 159.9 113.1C160.2 112.9 160.3 112.6 160.1 112.4C159.7 111.8 159.4 111.2 159 110.6C159.5 110.3 159.9 109.9 160.4 109.5C160.8 109.1 161.3 108.7 161.7 108.2C162.3 108.6 162.8 109.1 163.4 109.5C163.6 109.7 163.9 109.6 164.1 109.4C164.6 108.8 165 108.2 165.4 107.5C165.6 107.2 165.5 106.9 165.3 106.8C164.7 106.4 164.2 106 163.5 105.6C163.8 105.1 164 104.6 164.3 104C164.5 103.5 164.7 102.9 164.9 102.3C165.6 102.5 166.3 102.6 167 102.7C167.3 102.8 167.5 102.6 167.6 102.3C167.8 101.5 167.9 100.8 168 100C168 99.6 167.9 99.3 167.6 99.3ZM19.1 77.6C18.1 78.9 16.2 79.4 14.7 78.9C13.5 78.5 12.6 77.5 12.3 76.3C12.2 75.9 12.1 75.5 12.2 75.1C12.2 74.3 12.5 73.5 13 72.8C13.5 72.2 14.2 71.7 15 71.5C15.8 71.3 16.6 71.3 17.4 71.6C18.2 71.9 18.9 72.4 19.3 73.1C19.5 73.4 19.7 73.8 19.8 74.2C20.1 75.3 19.8 76.7 19.1 77.6ZM27.7 114C26.5 115.6 24.1 116.3 22.2 115.6C20.7 115.1 19.6 113.8 19.2 112.4C19.1 111.9 19 111.4 19 110.9C19 109.9 19.4 108.9 20 108.1C20.6 107.3 21.5 106.7 22.5 106.4C23.5 106.1 24.5 106.2 25.5 106.5C26.5 106.9 27.3 107.5 27.9 108.4C28.2 108.8 28.4 109.3 28.5 109.8C28.9 111.2 28.6 112.8 27.7 114ZM52.4 14.5C52.4 14.2 52.4 13.8 52.4 13.4C52.6 12.4 53.3 11.4 54.3 10.9C55.6 10.2 57.3 10.5 58.2 11.6C59 12.4 59.3 13.5 59.1 14.6C59 15 58.9 15.3 58.7 15.6C58.4 16.2 57.8 16.8 57.2 17.1C56.6 17.4 55.8 17.5 55.1 17.4C54.4 17.3 53.7 16.9 53.2 16.4C52.9 15.9 52.5 15.2 52.4 14.5ZM62 134.5V134.4C62.1 134.4 62.2 134.5 62.3 134.5C62.2 134.5 62.1 134.5 62 134.5ZM107.3 144.7C107.1 145.1 106.9 145.6 106.6 146C106.4 146.4 106.1 146.8 105.8 147.3C105 146.8 104.2 146.4 103.5 145.9L102.8 145.5L102.3 146.2C101.9 146.8 101.4 147.4 100.8 148.1C100.3 148.6 99.8 149.2 99.1 149.8L98.5 150.3L99 151C99.5 151.7 100.1 152.4 100.6 153.2C99.8 153.8 99 154.4 98.2 154.9C97.7 154.1 97.2 153.4 96.7 152.6L96.2 151.9L95.5 152.3C94.8 152.7 94.1 153 93.4 153.3C92.6 153.6 91.9 153.9 91.2 154.1L90.4 154.3L90.6 155.1C90.8 156 91 156.8 91.1 157.8C90.1 158 89.2 158.2 88.2 158.3C88.1 157.4 87.9 156.5 87.8 155.6L87.7 154.8L86.9 154.9C86.1 154.9 85.3 154.9 84.5 154.9C83.7 154.9 82.9 154.8 82.2 154.6L81.4 154.4L81.2 155.2C81 156.1 80.8 156.9 80.5 157.8C79.6 157.6 78.6 157.3 77.7 157C78 156.1 78.2 155.3 78.5 154.4L78.8 153.6L78 153.3C77.3 153 76.6 152.7 75.9 152.3C75.2 151.9 74.5 151.5 73.9 151L73.2 150.5L72.7 151.1C72.1 151.8 71.6 152.5 70.9 153.2C70.1 152.6 69.4 151.9 68.7 151.3C69.3 150.6 70 150 70.6 149.3L71.2 148.7L70.6 148.1C70.1 147.5 69.6 146.9 69.1 146.3C68.6 145.7 68.2 145 67.8 144.3L67.4 143.6L66.6 143.9C65.8 144.3 65 144.6 64.1 145C63.7 144.2 63.3 143.3 63 142.3C63.8 142 64.7 141.7 65.5 141.3L66.3 141L66.1 140.2C65.9 139.5 65.7 138.8 65.6 137.9C65.5 137.3 65.4 136.7 65.4 136C70.4 137.9 75.6 139.2 81.1 139.8C81.9 140.5 82.9 141 83.9 141.3C84.8 141.5 85.6 141.6 86.4 141.5C87.6 141.4 88.7 140.9 89.7 140.2C95.2 140.1 100.6 139.3 105.7 137.9V138C105.6 138.8 105.4 139.6 105.2 140.3C105 141.1 104.7 141.8 104.4 142.5L104.1 143.3L104.8 143.7C105.7 143.8 106.5 144.3 107.3 144.7ZM109.5 137.2C108.9 137.2 108.3 137.1 107.7 137C108.3 136.8 109 136.6 109.6 136.4C109.6 136.7 109.5 137 109.5 137.2ZM125.2 63.5L88.2 100.5C88.1 100.7 87.9 100.9 87.8 101C86.4 102.4 84 102.4 82.6 101L57 75.4C55.6 74 55.6 71.6 57 70.2C58.4 68.8 60.8 68.8 62.2 70.2L85.2 93.2L120 58.3C121.4 56.9 123.8 56.9 125.2 58.3C126.7 59.7 126.7 62 125.2 63.5ZM153.8 100.7C152.7 102.1 150.6 102.7 148.9 102.1C148.4 101.9 148 101.7 147.6 101.3C148.7 98.8 149.6 96.3 150.4 93.7C150.9 93.7 151.4 93.8 151.9 94C152.8 94.3 153.5 94.9 154 95.6C154.3 96 154.4 96.4 154.6 96.8C154.9 98.2 154.6 99.6 153.8 100.7Z" fill="#79BA87"/>
<path d="M98.6999 23.2C97.9999 23.9 96.8999 23.9 96.1999 23.2C95.4999 22.5 95.4999 21.4 96.1999 20.7C96.8999 20 97.9999 20 98.6999 20.7C99.2999 21.4 99.2999 22.5 98.6999 23.2Z" fill="white"/>
<path d="M100.7 18.7C98.9 16.9 96 16.9 94.2 18.7C92.4 20.5 92.4 23.4 94.2 25.2C96 27 98.9 27 100.7 25.2C102.5 23.5 102.5 20.5 100.7 18.7ZM100.2 24.8C98.7 26.3 96.2 26.3 94.6 24.8C93.1 23.3 93.1 20.8 94.6 19.2C96.1 17.7 98.6 17.7 100.2 19.2C101.8 20.7 101.8 23.2 100.2 24.8Z" fill="white"/>
<path d="M143.3 20.2C142.6 20.9 141.4 20.9 140.7 20.2C140 19.5 140 18.3 140.7 17.6C141.4 16.9 142.6 16.9 143.3 17.6C144 18.3 144 19.5 143.3 20.2Z" fill="#79BA87"/>
<path d="M145.5 15.5C143.6 13.6 140.5 13.6 138.7 15.5C136.8 17.4 136.8 20.5 138.7 22.3C140.6 24.2 143.6 24.2 145.5 22.3C147.4 20.4 147.4 17.4 145.5 15.5ZM145 21.8C143.4 23.4 140.8 23.4 139.2 21.8C137.6 20.2 137.6 17.6 139.2 16C140.8 14.4 143.4 14.4 145 16C146.6 17.6 146.6 20.2 145 21.8Z" fill="#79BA87"/>
<path d="M66.1 53.5H54.3V54.8H66.1V53.5Z" fill="#F5F5F5"/>
<path d="M60.9001 48.2H59.6001V60H60.9001V48.2Z" fill="#F5F5F5"/>
<path d="M40.5 157.4H34.6V159H40.5V157.4Z" fill="#79BA87"/>
<path d="M28 157.4H21.7V159H28V157.4Z" fill="#79BA87"/>
<path d="M32.1 161.5H30.5V167.3H32.1V161.5Z" fill="#79BA87"/>
<path d="M32.1 149.4H30.5V155H32.1V149.4Z" fill="#79BA87"/>
<path d="M35.2999 157.4C34.9999 155.8 33.6999 154.5 32.0999 154.2C31.7999 154.2 31.5999 154.1 31.2999 154.1C30.9999 154.1 30.7 154.1 30.5 154.2C28.9 154.5 27.5999 155.8 27.2999 157.4C27.2999 157.7 27.2 157.9 27.2 158.2C27.2 158.5 27.1999 158.7 27.2999 159C27.5999 160.6 28.9 161.9 30.5 162.2C30.8 162.2 30.9999 162.3 31.2999 162.3C31.5999 162.3 31.8999 162.3 32.0999 162.2C33.6999 161.9 34.9999 160.6 35.2999 159C35.4 158.7 35.4 158.5 35.4 158.2C35.4 158 35.4 157.7 35.2999 157.4ZM31.2999 160.7C29.8999 160.7 28.7999 159.6 28.7999 158.2C28.7999 156.8 29.8999 155.7 31.2999 155.7C32.6999 155.7 33.7999 156.8 33.7999 158.2C33.7999 159.6 32.6999 160.7 31.2999 160.7Z" fill="#79BA87"/>
<path d="M134 152.1H123.8V153.2H134V152.1Z" fill="#79BA87"/>
<path d="M129.4 147.5H128.3V157.7H129.4V147.5Z" fill="#79BA87"/>
<path d="M27.5 36.7H17.3V37.8H27.5V36.7Z" fill="#79BA87"/>
<path d="M22.9 32.2H21.8V42.4H22.9V32.2Z" fill="#79BA87"/>
<path d="M138.82 154.8L138.042 155.578L145.255 162.79L146.032 162.013L138.82 154.8Z" fill="#79BA87"/>
<path d="M145.2 154.801L137.988 162.014L138.766 162.792L145.978 155.578L145.2 154.801Z" fill="#79BA87"/>
<path d="M81.3 24.5L80.5 23.8L87.5 16.8L88.3 17.6L81.3 24.5Z" fill="white"/>
<path d="M87.5 24.5L80.5 17.6L81.3 16.8L88.3 23.8L87.5 24.5Z" fill="white"/>
<path d="M142.1 70.2H138.1V71.3H142.1V70.2Z" fill="#F5F5F5"/>
<path d="M133.7 70.2H129.5V71.3H133.7V70.2Z" fill="#F5F5F5"/>
<path d="M136.4 72.9H135.3V76.8H136.4V72.9Z" fill="#F5F5F5"/>
<path d="M136.4 64.8H135.3V68.6H136.4V64.8Z" fill="#F5F5F5"/>
<path d="M138.6 70.2C138.4 69.1 137.5 68.3 136.5 68C136.3 68 136.1 67.9 136 67.9C135.9 67.9 135.6 67.9 135.5 68C134.4 68.2 133.6 69.1 133.3 70.2C133.3 70.4 133.2 70.6 133.2 70.7C133.2 70.8 133.2 71.1 133.3 71.2C133.5 72.3 134.4 73.1 135.5 73.4C135.7 73.4 135.9 73.5 136 73.5C136.1 73.5 136.4 73.5 136.5 73.4C137.6 73.2 138.4 72.3 138.6 71.2C138.6 71 138.7 70.8 138.7 70.7C138.7 70.6 138.6 70.4 138.6 70.2ZM135.9 72.4C135 72.4 134.2 71.6 134.2 70.7C134.2 69.8 134.9 69 135.9 69C136.8 69 137.6 69.7 137.6 70.7C137.6 71.6 136.8 72.4 135.9 72.4Z" fill="#F5F5F5"/>
<path d="M35.1001 26H32.2001V27.7H35.1001V26Z" fill="#79BA87"/>
<path d="M28.9 26H25.9V27.7H28.9V26Z" fill="#79BA87"/>
<path d="M31.4001 28.4H29.7001V31.2H31.4001V28.4Z" fill="#79BA87"/>
<path d="M31.4001 22.5H29.7001V25.2H31.4001V22.5Z" fill="#79BA87"/>
<path d="M32.9001 26C32.6001 25.3 32.1 24.8 31.5 24.6C31.2 24.5 31.0001 24.5 30.7001 24.5C30.4001 24.5 30.1 24.5 29.9 24.6C29.2 24.9 28.7 25.4 28.5 26C28.4 26.3 28.3 26.5 28.3 26.8C28.3 27.1 28.3 27.4 28.5 27.6C28.8 28.3 29.3 28.8 29.9 29C30.2 29.1 30.4001 29.2 30.7001 29.2C31.0001 29.2 31.3 29.1 31.5 29C32.2 28.7 32.7001 28.2 32.9001 27.6C33.0001 27.3 33 27.1 33 26.8C33 26.5 33.0001 26.2 32.9001 26ZM30.6 27.6C30.2 27.6 29.8 27.3 29.8 26.8C29.8 26.4 30.1 26.1 30.6 26.1C31.0001 26.1 31.4 26.4 31.4 26.8C31.3 27.2 31.0001 27.6 30.6 27.6Z" fill="#79BA87"/>
</svg>
