<svg width="64" height="64" viewBox="0 0 64 64" fill="none" xmlns="http://www.w3.org/2000/svg">
<path d="M61.4219 19.7078C59.7781 15.9206 57.4399 12.4956 54.4721 9.52787C51.5044 6.56012 48.0794 4.22188 44.2923 2.57812C40.3511 0.867375 36.2154 0 32 0C27.7846 0 23.6489 0.867375 19.7078 2.57812C15.9206 4.22188 12.4956 6.56012 9.52787 9.52787C6.56012 12.4956 4.22188 15.9206 2.57812 19.7078C0.867375 23.6489 0 27.7846 0 32C0 36.2154 0.867375 40.3511 2.57812 44.2923C4.22175 48.0794 6.56 51.5044 9.52787 54.4721C12.4956 57.4399 15.9206 59.7781 19.7078 61.4219C23.6489 63.1326 27.7846 64 32 64C36.2154 64 40.3511 63.1326 44.2923 61.4219C48.0794 59.7781 51.5044 57.4399 54.4721 54.4721C57.4399 51.5044 59.7781 48.0794 61.4219 44.2923C63.1326 40.3511 64 36.2154 64 32C64 27.7846 63.1326 23.6489 61.4219 19.7078ZM32 61.5C16.0094 61.5 2.5 47.9906 2.5 32C2.5 16.0094 16.0094 2.5 32 2.5C47.9906 2.5 61.5 16.0094 61.5 32C61.5 47.9906 47.9906 61.5 32 61.5Z" fill="white"/>
<path d="M56.4969 21.7255C55.1381 18.5685 53.2015 15.72 50.7407 13.2594C48.28 10.7986 45.4316 8.862 42.2746 7.50325C38.9935 6.091 35.5366 5.375 32 5.375C27.1922 5.375 22.1806 7.01675 17.5069 10.1226C16.9319 10.5048 16.7755 11.2806 17.1576 11.8555C17.5398 12.4305 18.3156 12.5868 18.8905 12.2048C23.153 9.37225 27.6861 7.875 32 7.875C45.0771 7.875 56.125 18.9229 56.125 32C56.125 45.0771 45.0771 56.125 32 56.125C18.9229 56.125 7.875 45.0771 7.875 32C7.875 27.687 9.37187 23.1536 12.2036 18.8904C12.5856 18.3153 12.4291 17.5395 11.8541 17.1575C11.2789 16.7755 10.5033 16.9321 10.1213 17.5071C7.01625 22.1818 5.375 27.1933 5.375 32C5.375 35.5366 6.091 38.9935 7.50313 42.2745C8.86188 45.4315 10.7985 48.28 13.2592 50.7406C15.72 53.2015 18.5684 55.138 21.7255 56.4969C25.0065 57.909 28.4634 58.625 32 58.625C35.5366 58.625 38.9935 57.909 42.2745 56.4969C45.4315 55.1381 48.28 53.2015 50.7406 50.7407C53.2014 48.28 55.138 45.4316 56.4967 42.2746C57.909 38.9935 58.625 35.5366 58.625 32C58.625 28.4634 57.909 25.0065 56.4969 21.7255Z" fill="white"/>
<path d="M14.375 13.125C13.685 13.125 13.125 13.685 13.125 14.375C13.125 15.065 13.685 15.625 14.375 15.625C15.065 15.625 15.625 15.065 15.625 14.375C15.625 13.685 15.065 13.125 14.375 13.125Z" fill="white"/>
<path d="M46.7851 22.2149C45.8405 21.2702 44.5851 20.75 43.25 20.75C41.9149 20.75 40.6595 21.2702 39.7149 22.2149L28.25 33.6797L24.2851 29.7149C23.3405 28.7702 22.0851 28.25 20.75 28.25C19.4149 28.25 18.1595 28.7703 17.2153 29.7145C16.2704 30.6586 15.75 31.9141 15.75 33.25C15.75 34.5859 16.2704 35.8414 17.2149 36.7851L24.7149 44.2851C25.6595 45.2298 26.915 45.75 28.25 45.75C29.585 45.75 30.8405 45.2298 31.7851 44.2851L46.7848 29.2855C47.7296 28.3414 48.25 27.0859 48.25 25.75C48.25 24.4141 47.7296 23.1586 46.7851 22.2149ZM45.0174 27.5174L30.0174 42.5174C29.5449 42.9897 28.9172 43.25 28.25 43.25C27.5828 43.25 26.9551 42.9897 26.4826 42.5174L18.9823 35.017C18.5101 34.5451 18.25 33.9176 18.25 33.25C18.25 32.5824 18.5101 31.9549 18.9826 31.4826C19.4551 31.0102 20.0828 30.75 20.75 30.75C21.4172 30.75 22.0449 31.0102 22.5174 31.4826L28.25 37.2152L41.4826 23.9826C41.9551 23.5102 42.5827 23.25 43.25 23.25C43.9173 23.25 44.5449 23.5103 45.0177 23.983C45.4899 24.4549 45.75 25.0824 45.75 25.75C45.75 26.4176 45.4899 27.0451 45.0174 27.5174Z" fill="white"/>
</svg>
