<svg width="20" height="40" viewBox="0 0 20 40" fill="none" xmlns="http://www.w3.org/2000/svg">
<rect width="20" height="40" fill="#3A58C2"/>
<rect x="4" y="8" width="12" height="4" fill="#62B9F8"/>
<rect x="4" y="12" width="12" height="4" fill="#FFD704"/>
<path d="M9.12156 24H8.1015V29.2611C8.1015 30.4822 7.60209 31.087 6.55015 31.087C5.50884 31.087 5.00944 30.4822 5.00944 29.2611V24H4V29.3409C4 30.9044 4.88193 32 6.55015 32C8.19713 32 9.12156 30.9044 9.12156 29.3409V24Z" fill="white"/>
<path d="M14.9374 31.8631H16L13.6624 24H12.3873L10.039 31.8631H11.0591L11.6116 29.8887H14.3849L14.9374 31.8631ZM11.856 29.01L13.0036 24.9016L14.1405 29.01H11.856Z" fill="white"/>
</svg>
