<svg width="18" height="26" viewBox="0 0 18 26" fill="none" xmlns="http://www.w3.org/2000/svg">
<path d="M9.6741 1.01303C14.0612 0.993487 17.5396 4.55923 17.4028 8.93582C17.354 10.411 16.9045 11.7689 16.0935 13.0096C15.8786 13.3417 15.6343 13.4492 15.2435 13.3515C14.2957 13.117 13.3479 12.9119 12.4002 12.6969C12.2634 12.6676 12.068 12.6676 12.0289 12.5211C11.98 12.3453 12.1852 12.3062 12.2927 12.2183C13.7779 11.0948 14.413 9.26797 13.9146 7.48998C13.4359 5.79992 11.9214 4.52016 10.1431 4.32477C7.8665 4.07077 5.78531 5.66315 5.3554 7.97844C4.95479 10.1277 6.38133 12.3746 8.54069 12.9021C11.0811 13.5176 13.6313 14.0744 16.1815 14.6508C16.9045 14.8169 16.9241 14.8462 16.5039 15.4323C14.3446 18.5194 12.1754 21.6064 10.0063 24.6935C9.71319 25.1038 9.64479 25.1038 9.35167 24.6837C7.03598 21.3817 4.70075 18.0993 2.41437 14.7778C-1.37671 9.2582 2.14079 1.69687 8.79473 1.01303C9.08785 0.983718 9.38098 1.01303 9.6741 1.01303Z" stroke="black" stroke-width="0.7"/>
</svg>
