<svg width="138" height="139" viewBox="0 0 138 139" fill="none" xmlns="http://www.w3.org/2000/svg">
<path d="M46.184 93C32.959 99.325 19.734 105.65 6.509 112.55C1.334 115.425 -0.391 121.75 0.184 127.5C0.184 130.95 -0.966 135.55 2.484 137.85C5.934 139.575 9.959 138.425 13.409 139H132.434C137.034 138.425 138.184 133.825 137.609 130.375C137.609 124.625 138.184 118.875 133.584 114.85C130.134 111.4 125.534 109.675 120.934 107.375C111.159 102.775 100.809 97.6 91.034 93H46.184Z" fill="#2C3E50"/>
<path d="M46.1841 93H92.1841L80.6841 139H57.6841L46.1841 93Z" fill="#BDC3C7"/>
<path d="M57.6841 104.5V121.75L63.4341 127.5L57.6841 139H80.6841L74.9341 127.5L80.6841 121.75V104.5H57.6841Z" fill="#2C3E50"/>
<path d="M86.4341 75.75H51.9341V104.5H86.4341V75.75Z" fill="#95A5A6"/>
<path d="M46.1841 93L51.9341 87.25L69.1841 104.5L86.4341 87.25L92.1841 93L80.6841 121.75L69.1841 104.5L57.6841 121.75L46.1841 93Z" fill="#ECF0F1"/>
<path d="M69.184 1C51.934 1 38.134 16.5247 35.259 36.6497C34.684 36.6497 34.109 36.0747 33.534 36.6497C30.659 37.7997 29.509 43.5501 31.809 49.3001C32.959 52.7501 34.684 55.6246 36.984 57.3496C41.584 74.5996 54.234 87.25 69.759 87.25C85.284 87.25 97.934 74.5996 102.534 57.3496C104.259 55.6246 106.559 52.7501 107.709 49.3001C109.434 42.9751 108.859 37.7997 105.984 36.6497C105.409 36.6497 104.834 36.6497 104.259 36.6497C100.234 16.5247 86.434 1 69.184 1Z" fill="#BDC3C7"/>
<path d="M46.1841 93L34.6841 98.75V116H46.1841L34.6841 121.75L46.1841 139H57.6841L46.1841 93ZM92.1841 93L80.6841 139H92.1841L103.684 121.75L92.1841 116H103.684V98.75L92.1841 93Z" fill="#34495E"/>
<path d="M69.1841 1.00016C57.6841 0.425159 46.7591 8.47488 40.4341 19.3999C37.5591 24.5749 35.2591 30.8999 34.6841 36.6499C36.4091 36.0749 38.1341 37.2253 39.8591 34.9253C43.3091 31.4753 45.0341 28.6002 46.1841 24.0002C48.4841 18.8252 53.0841 10.7752 57.6841 12.5002C61.7091 13.6502 63.4341 15.95 69.1841 15.95C74.9341 15.95 76.6591 13.6502 80.6841 12.5002C85.2841 10.7752 89.8841 18.8252 92.1841 24.0002C93.3341 28.6002 95.0591 31.4753 98.5091 34.9253C100.234 37.2253 101.959 36.0749 103.684 36.6499C102.534 30.8999 100.809 24.5749 97.9341 19.3999C92.1841 8.47488 81.2591 0.425159 69.1841 1.00016Z" fill="#34495E"/>
</svg>
