<svg width="24" height="24" viewBox="0 0 24 24" fill="none" xmlns="http://www.w3.org/2000/svg">
<g clip-path="url(#clip0)">
<path d="M1.22541 13.8938C0.508205 7.87154 1.56761 4.07371 3.48016 2.35041C6.56462 -0.585772 16.9899 -1.02128 20.679 2.48153C22.3385 4.19547 22.9197 6.71018 22.9854 9.82431C23.051 12.9384 23.126 18.7733 17.6837 20.3562H17.679L17.6837 22.7725C17.6837 22.7725 17.7212 23.7513 17.093 23.9479C16.3758 24.1774 16.0524 23.7232 13.8257 21.068C10.1038 21.3911 7.23963 20.6512 6.91619 20.5435C6.16617 20.2859 1.90981 19.724 1.22541 13.8938ZM13.4601 19.3634C13.4601 19.3634 15.818 22.2996 16.5493 23.0629C16.7883 23.3111 17.0508 23.2876 17.0461 22.7959C17.0461 22.4728 17.0274 18.7827 17.0274 18.7827C21.64 17.4621 21.3681 12.4936 21.3166 9.89456C21.265 7.29555 20.7916 5.16483 19.3853 3.73186C16.1555 0.702025 7.01463 1.38105 4.68957 3.56328C1.84418 6.08268 2.8567 13.2054 2.85202 13.4489C3.43797 18.3191 6.88337 18.6282 7.52089 18.8389C7.78808 18.9279 10.3006 19.5741 13.4601 19.3634Z" fill="#8E24AA"/>
<path d="M11.7276 4C12.0908 4 12.0908 4.61496 11.7276 4.61977C8.90588 4.64379 6.58031 6.77693 6.55373 10.6925C6.55373 11.1057 5.9956 11.1009 6.00003 10.6877C6.03103 6.46465 8.56923 4.01922 11.7276 4Z" fill="#8E24AA"/>
<path d="M8.54726 10.6677C8.556 11.0979 8.00543 11.1182 8.00106 10.6829C7.95737 8.23314 9.25949 6.21361 11.7108 6.00103C12.0691 5.97066 12.1084 6.62359 11.7501 6.65396C9.62216 6.84123 8.50356 8.52164 8.54726 10.6677Z" fill="#8E24AA"/>
<path d="M8.64535 12.7435C9.19378 12.4591 9.75789 12.6363 9.98771 12.9161L10.4735 13.4757C10.719 13.7602 11.1786 13.7229 11.1786 13.7229C14.5371 12.9301 15.4355 9.79161 15.4355 9.79161C15.4355 9.79161 15.4773 9.36724 15.1691 9.13874L14.5632 8.69105C14.2603 8.47653 14.067 7.9589 14.3752 7.45059C15.2005 6.12152 15.7541 5.65984 16.0362 5.31009C16.3339 4.97899 16.7779 4.90437 17.2427 5.12822H17.2532C18.2195 5.63186 19.2745 6.57387 18.935 7.54386C18.3605 8.56514 17.3002 11.8249 13.926 14.2918C12.3381 15.4576 9.83101 16.6515 8.76548 16.9266L8.75503 16.9406C7.70517 17.253 6.68665 16.2737 6.13822 15.3877V15.383C5.89795 14.954 5.9763 14.5483 6.33147 14.2825C6.95826 13.7322 7.90365 13.1306 8.64535 12.7435Z" fill="#8E24AA"/>
<path d="M11.7653 8.48758C10.943 8.53289 10.5459 8.93688 10.5018 9.76751C10.4857 10.0922 9.98433 10.0696 10.0004 9.74485C10.0565 8.66126 10.6542 8.05717 11.7373 8.00053C12.0662 7.98166 12.0983 8.46871 11.7653 8.48758Z" fill="#8E24AA"/>
</g>
<defs>
<clipPath id="clip0">
<rect width="24" height="24" fill="white"/>
</clipPath>
</defs>
</svg>
