<svg width="91" height="90" viewBox="0 0 91 90" fill="none" xmlns="http://www.w3.org/2000/svg">
<g clip-path="url(#clip0)">
<path d="M24.9138 34.7737H21.875V37.8125H24.9138V34.7737Z" fill="url(#paint0_linear)"/>
<path d="M39.8434 34.7737H36.8046V37.8125H39.8434V34.7737Z" fill="url(#paint1_linear)"/>
<path d="M89.2564 51.1566L83.4431 50.3639C83.1789 49.5712 82.7825 48.7784 82.5183 47.9857L86.0855 43.2294C86.4819 42.7009 86.4819 41.7761 85.9534 41.2476L79.6116 34.9058C79.3474 34.6416 79.0832 34.5094 78.6868 34.5094V20.2404C81.4613 17.9944 83.1789 14.5593 83.1789 10.992C83.1789 6.3678 80.5365 2.13995 76.3086 0.15814C75.5159 -0.238221 74.7232 0.15814 74.3268 0.818742C74.1947 1.08298 74.1947 1.2151 74.1947 1.47934V9.80293L71.1559 10.8599L68.1172 9.80293V1.47934C68.1172 0.686622 67.4566 0.0260196 66.6638 0.0260196C66.3996 0.0260196 66.2675 0.0260196 66.0032 0.15814C61.7754 2.13995 59.133 6.3678 59.133 10.992C59.133 14.5593 60.7184 17.9944 63.6251 20.2404V30.2816H59.133C58.3403 30.2816 57.8118 30.8101 57.6797 31.6028L56.7548 38.3409L59.6615 38.7373L60.4542 33.3204H66.796L67.5887 38.7373C67.7208 39.2658 68.1172 39.7943 68.6456 39.9264C69.8347 40.3227 71.0238 40.7191 72.2129 41.3797C72.7414 41.6439 73.402 41.6439 73.7983 41.2476L78.1583 37.9446L82.6504 42.4367L79.3474 46.7966C78.951 47.3251 78.951 47.8536 79.2153 48.3821C79.8759 49.5712 80.2722 50.7603 80.6686 51.9493C80.8007 52.4778 81.3292 52.8742 81.8577 53.0063L87.2746 53.799V60.1408L81.8577 60.9335C81.3292 61.0656 80.8007 61.462 80.6686 61.9905C80.2722 63.1796 79.8759 64.3687 79.2153 65.5577C78.951 66.0862 78.951 66.7468 79.3474 67.1432L82.6504 71.5032L78.1583 75.9952L73.7983 72.6922C73.2699 72.2959 72.7414 72.2959 72.2129 72.5601C71.0238 73.2207 69.8347 73.6171 68.6456 74.0134C68.1172 74.1456 67.7208 74.674 67.5887 75.2025L66.796 80.6195H60.5863V74.2777C60.5863 72.6922 60.3221 71.1068 59.9257 69.6535C67.1923 71.7674 74.7232 67.6717 76.8371 60.405C78.951 53.1384 74.8553 45.6076 67.5887 43.4936C60.3221 41.3797 52.7912 45.4754 50.6773 52.7421C50.0167 54.856 50.0167 56.9699 50.413 59.0838H50.2809L38.258 54.1954V51.9493C40.2398 50.8924 41.9573 49.5712 43.4106 47.8536H47.2421C49.7524 47.8536 51.7342 45.8718 51.7342 43.3615V40.0585C53.4518 39.3979 54.773 37.8125 54.773 35.8306V31.3386C54.773 29.4889 53.5839 27.7713 51.7342 27.1107V25.3931C51.7342 13.8987 42.3537 4.51811 30.8592 4.51811C19.3647 4.51811 9.98419 14.295 9.98419 25.7895V27.5071C8.26662 28.1677 6.94542 29.7531 6.94542 31.7349V36.227C6.94542 38.7373 8.92722 40.7191 11.4375 40.7191H14.4763C14.6084 40.7191 14.6084 40.7191 14.7405 40.7191C15.6654 45.7397 18.8363 49.9675 23.4605 52.3457V54.5917L11.3054 59.4802C5.09573 61.9905 1 68.068 1 74.674V88.5467C1 89.3394 1.6606 90 2.45332 90H59.133C59.9257 90 60.5863 89.3394 60.5863 88.5467V84.0546H67.985C68.7778 84.0546 69.3062 83.5261 69.4384 82.7334L70.2311 76.9201C71.0238 76.6559 71.8165 76.2595 72.6093 75.9952L77.3656 79.5625C77.8941 79.9589 78.8189 79.9589 79.3474 79.4304L85.6892 73.0886C86.2177 72.5601 86.2177 71.7674 85.8213 71.1068L82.254 66.3505C82.6504 65.5577 82.9146 64.765 83.1789 63.9723L88.9922 63.1796C89.7849 63.0474 90.3134 62.3868 90.3134 61.7262V52.7421C90.4455 51.9493 89.917 51.2887 89.2564 51.1566ZM72.7414 38.4731C72.6093 38.4731 72.6093 38.4731 72.4771 38.3409V19.8441H69.4384V31.7349V31.6028C69.3062 30.8101 68.6456 30.2816 67.985 30.2816H66.5317V19.4477C66.5317 18.9192 66.2675 18.5229 65.8711 18.2586C61.7754 15.4841 60.8505 9.80293 63.6251 5.83932C64.0214 5.31084 64.5499 4.78235 64.9463 4.25387V10.992C64.9463 11.6526 65.3426 12.1811 66.0032 12.4453L70.4953 13.8987C70.7596 14.0308 71.1559 14.0308 71.4202 13.8987L75.9123 12.4453C76.5729 12.1811 76.9692 11.6526 76.9692 10.992V4.25387C80.6686 7.55688 80.9328 13.2381 77.6298 16.9374C77.1013 17.4659 76.705 17.8623 76.0444 18.2586C75.648 18.5229 75.3838 19.0514 75.3838 19.4477V36.227L72.7414 38.4731ZM53.1876 57.2341C53.1876 51.4209 57.8118 46.6645 63.6251 46.6645C69.4384 46.6645 74.1947 51.2887 74.1947 57.102C74.1947 62.9153 69.5705 67.6717 63.7572 67.6717C61.7754 67.6717 59.7936 67.1432 58.076 66.0862C57.019 64.5008 55.6978 63.0474 54.2445 61.8584C53.5839 60.2729 53.1876 58.8196 53.1876 57.2341ZM47.2421 45.2112H45.3925C46.1852 43.7579 46.5815 42.3045 46.9779 40.7191C47.11 40.7191 47.11 40.7191 47.2421 40.7191H48.6955V43.7579C48.6955 44.5506 48.0349 45.2112 47.2421 45.2112ZM44.2034 28.8283C42.75 28.8283 41.4288 28.1677 40.6361 26.9786L37.9937 23.4113C37.7295 23.1471 37.3331 22.8828 36.9367 22.8828C36.5404 22.8828 36.144 22.8828 35.8798 23.1471L30.8592 27.1107C29.538 28.1677 27.9526 28.6961 26.235 28.6961H17.3829V27.2428C17.3829 19.8441 23.3283 13.7665 30.8592 13.7665C38.3901 13.7665 44.3355 19.712 44.3355 27.2428V28.8283H44.2034ZM51.7342 36.3591C51.7342 37.1519 51.0736 37.8125 50.2809 37.8125H47.2421V30.4137H50.2809C51.0736 30.4137 51.7342 31.0743 51.7342 31.867V36.3591ZM30.8592 7.95324C40.7682 7.95324 48.6955 16.0126 48.6955 25.7895V27.2428H47.2421C47.2421 18.1265 39.8434 10.8599 30.8592 10.8599C21.875 10.8599 14.4763 18.2586 14.4763 27.2428H12.8908V25.7895C12.8908 16.0126 20.9502 7.95324 30.8592 7.95324ZM11.4375 37.8125C10.6448 37.8125 9.98419 37.1519 9.98419 36.3591V31.867C9.98419 31.0743 10.6448 30.4137 11.4375 30.4137H14.4763V37.8125H11.4375ZM17.3829 37.8125V31.867H26.235C28.6132 31.867 30.8592 31.0743 32.7089 29.621L36.5404 26.5822L38.258 28.9604C39.7113 30.8101 41.8252 31.9992 44.2034 31.9992V37.9446C44.2034 40.587 43.4106 43.2294 41.9573 45.3433H30.8592V48.3821H39.3149C33.5016 52.8742 25.0459 51.9493 20.4217 46.2682C18.4399 43.89 17.3829 40.8512 17.3829 37.8125ZM30.8592 54.1954C32.3125 54.1954 33.898 53.9311 35.3513 53.5348V55.6487C35.3513 58.159 33.3695 60.1408 30.8592 60.1408C28.3489 60.1408 26.3671 58.159 26.3671 55.6487V53.5348C27.8204 53.9311 29.2738 54.1954 30.8592 54.1954ZM57.6797 86.9612H48.6955V70.5783H45.6567V86.9612H15.9296V70.5783H12.8908V86.9612H4.03877V74.674C4.03877 69.125 7.34178 64.2365 12.4945 62.2547L23.7247 57.7626C24.7817 61.7262 28.8774 63.9723 32.841 62.9153C35.3513 62.2547 37.201 60.2729 37.9937 57.7626L49.2239 62.2547C54.3766 64.2365 57.6797 69.2571 57.6797 74.674V86.9612Z" fill="url(#paint2_linear)"/>
<path d="M65.2105 36.3591H62.1717V39.3979H65.2105V36.3591Z" fill="url(#paint3_linear)"/>
<path d="M65.2105 75.0704H62.1717V78.1092H65.2105V75.0704Z" fill="url(#paint4_linear)"/>
<path d="M77.4237 68.6881L75.2749 70.8368L77.4237 72.9856L79.5724 70.8368L77.4237 68.6881Z" fill="url(#paint5_linear)"/>
<path d="M84.6322 55.6487H81.5934V58.6875H84.6322V55.6487Z" fill="url(#paint6_linear)"/>
<path d="M77.3785 41.2267L75.2298 43.3754L77.3785 45.5241L79.5272 43.3754L77.3785 41.2267Z" fill="url(#paint7_linear)"/>
</g>
<defs>
<linearGradient id="paint0_linear" x1="1" y1="90" x2="97.1265" y2="7.95895" gradientUnits="userSpaceOnUse">
<stop stop-color="#DA505D"/>
<stop offset="1" stop-color="#511A76"/>
</linearGradient>
<linearGradient id="paint1_linear" x1="1" y1="90" x2="97.1265" y2="7.95895" gradientUnits="userSpaceOnUse">
<stop stop-color="#DA505D"/>
<stop offset="1" stop-color="#511A76"/>
</linearGradient>
<linearGradient id="paint2_linear" x1="1" y1="90" x2="97.1265" y2="7.95895" gradientUnits="userSpaceOnUse">
<stop stop-color="#DA505D"/>
<stop offset="1" stop-color="#511A76"/>
</linearGradient>
<linearGradient id="paint3_linear" x1="1" y1="90" x2="97.1265" y2="7.95895" gradientUnits="userSpaceOnUse">
<stop stop-color="#DA505D"/>
<stop offset="1" stop-color="#511A76"/>
</linearGradient>
<linearGradient id="paint4_linear" x1="1" y1="90" x2="97.1265" y2="7.95895" gradientUnits="userSpaceOnUse">
<stop stop-color="#DA505D"/>
<stop offset="1" stop-color="#511A76"/>
</linearGradient>
<linearGradient id="paint5_linear" x1="1" y1="90" x2="97.1265" y2="7.95895" gradientUnits="userSpaceOnUse">
<stop stop-color="#DA505D"/>
<stop offset="1" stop-color="#511A76"/>
</linearGradient>
<linearGradient id="paint6_linear" x1="1" y1="90" x2="97.1265" y2="7.95895" gradientUnits="userSpaceOnUse">
<stop stop-color="#DA505D"/>
<stop offset="1" stop-color="#511A76"/>
</linearGradient>
<linearGradient id="paint7_linear" x1="1" y1="90" x2="97.1265" y2="7.95895" gradientUnits="userSpaceOnUse">
<stop stop-color="#DA505D"/>
<stop offset="1" stop-color="#511A76"/>
</linearGradient>
<clipPath id="clip0">
<path d="M0.996338 0H90.5889V90H0.996338V0Z" fill="white"/>
</clipPath>
</defs>
</svg>
