<svg width="90" height="84" viewBox="0 0 90 84" fill="none" xmlns="http://www.w3.org/2000/svg">
<path d="M54.4445 72.3344C41.25 72.3344 30.4167 61.5122 30.4167 48.0195C30.4167 34.6673 41.1111 23.7045 54.4445 23.7045C67.6389 23.7045 78.4722 34.5268 78.4722 48.0195C78.3333 61.3716 67.6389 72.3344 54.4445 72.3344ZM54.4445 26.6561C42.7778 26.6561 33.3333 36.2134 33.3333 48.0195C33.3333 59.8256 42.7778 69.3829 54.4445 69.3829C66.1111 69.3829 75.5556 59.8256 75.5556 48.0195C75.5556 36.2134 66.1111 26.6561 54.4445 26.6561Z" fill="url(#paint0_linear)"/>
<path d="M54.4445 66.5719C44.3056 66.5719 36.1111 58.2796 36.1111 48.0195C36.1111 37.7594 44.3056 29.467 54.4445 29.467C64.5833 29.467 72.7778 37.7594 72.7778 48.0195C72.7778 58.2796 64.5833 66.5719 54.4445 66.5719ZM54.4445 32.4186C45.8333 32.4186 38.8889 39.446 38.8889 48.0195C38.8889 56.7335 45.8333 63.761 54.4445 63.761C63.0556 63.761 70 56.7335 70 48.0195C69.8611 39.446 62.9167 32.4186 54.4445 32.4186Z" fill="url(#paint1_linear)"/>
<path d="M54.4445 54.3442C50.9722 54.3442 48.1944 51.5332 48.1944 48.0195C48.1944 44.5058 50.9722 41.6948 54.4445 41.6948C57.9167 41.6948 60.6945 44.5058 60.6945 48.0195C60.6945 51.5332 57.7778 54.3442 54.4445 54.3442ZM54.4445 44.6463C52.6389 44.6463 51.1111 46.1923 51.1111 48.0195C51.1111 49.8466 52.6389 51.3927 54.4445 51.3927C56.25 51.3927 57.7778 49.8466 57.7778 48.0195C57.7778 46.1923 56.25 44.6463 54.4445 44.6463Z" fill="url(#paint2_linear)"/>
<path d="M70.8333 53.3603H62.7778C61.9445 53.3603 61.3889 52.6576 61.3889 51.9549C61.3889 51.1116 62.0833 50.5494 62.7778 50.5494H69.5833C69.7222 49.7061 69.7222 49.0033 69.7222 48.16C69.7222 47.3167 69.7222 46.614 69.5833 45.7707H62.7778C61.9445 45.7707 61.3889 45.068 61.3889 44.3652C61.3889 43.5219 62.0833 42.9597 62.7778 42.9597H70.8333C71.5278 42.9597 72.0833 43.3814 72.2222 44.0841C72.5 45.4896 72.6389 46.8951 72.6389 48.16C72.6389 49.5655 72.5 50.971 72.2222 52.236C72.0833 52.7981 71.5278 53.3603 70.8333 53.3603Z" fill="url(#paint3_linear)"/>
<path d="M45.9722 53.3603H37.9167C37.2222 53.3603 36.6667 52.9387 36.5278 52.236C36.25 50.8305 36.1111 49.425 36.1111 48.16C36.1111 46.7545 36.25 45.3491 36.5278 44.0841C36.6667 43.3814 37.2222 42.9597 37.9167 42.9597H45.9722C46.8056 42.9597 47.3611 43.6625 47.3611 44.3652C47.3611 45.2085 46.6667 45.7707 45.9722 45.7707H39.1667C39.0278 46.4734 38.8889 47.3167 38.8889 48.0195C38.8889 48.7222 38.8889 49.5655 39.0278 50.4088H45.8333C46.6667 50.4088 47.2222 51.1116 47.2222 51.8143C47.3611 52.6576 46.6667 53.3603 45.9722 53.3603Z" fill="url(#paint4_linear)"/>
<path d="M58.1945 40.992C57.3611 40.992 56.8056 40.2893 56.8056 39.5866V32.6997C55.2778 32.4186 53.75 32.4186 52.0833 32.6997V39.446C52.0833 40.2893 51.3889 40.8515 50.6944 40.8515C49.8611 40.8515 49.3056 40.1487 49.3056 39.446V31.2942C49.3056 30.5914 49.7222 30.0292 50.4167 29.8887C53.1944 29.1859 55.8333 29.1859 58.6111 29.8887C59.3056 30.0292 59.7222 30.5914 59.7222 31.2942V39.446C59.5833 40.2893 59.0278 40.992 58.1945 40.992Z" fill="url(#paint5_linear)"/>
<path d="M54.4445 66.5719C53.0556 66.5719 51.6667 66.4314 50.4167 66.1503C49.7222 66.0097 49.3056 65.4475 49.3056 64.7448V56.593C49.3056 55.7497 50 55.1875 50.6944 55.1875C51.5278 55.1875 52.0833 55.8902 52.0833 56.593V63.4799C53.6111 63.761 55.1389 63.761 56.8056 63.4799V56.593C56.8056 55.7497 57.5 55.1875 58.1945 55.1875C59.0278 55.1875 59.5833 55.8902 59.5833 56.593V64.7448C59.5833 65.4475 59.1667 66.0097 58.4722 66.1503C57.0833 66.4314 55.6945 66.5719 54.4445 66.5719Z" fill="url(#paint6_linear)"/>
<path d="M48.4722 18.5042C47.6389 18.5042 47.0833 17.8015 47.0833 17.0987V14.0067C47.0833 13.1634 47.7778 12.6012 48.4722 12.6012C49.3056 12.6012 49.8611 13.3039 49.8611 14.0067V16.9582C49.8611 17.8015 49.3056 18.5042 48.4722 18.5042Z" fill="url(#paint7_linear)"/>
<path d="M60.4167 18.5042C59.5833 18.5042 59.0278 17.8015 59.0278 17.0987V14.0067C59.0278 13.1634 59.7222 12.6012 60.4167 12.6012C61.25 12.6012 61.8056 13.3039 61.8056 14.0067V16.9582C61.8056 17.8015 61.1111 18.5042 60.4167 18.5042Z" fill="url(#paint8_linear)"/>
<path d="M71.9445 23.2829C71.5278 23.2829 71.25 23.1423 70.9722 22.8612C70.4167 22.299 70.4167 21.3152 70.9722 20.753L73.0556 18.6448C73.6111 18.0826 74.5833 18.0826 75.1389 18.6448C75.6945 19.207 75.6945 20.1908 75.1389 20.753L73.0556 22.8612C72.6389 23.1423 72.2222 23.2829 71.9445 23.2829Z" fill="url(#paint9_linear)"/>
<path d="M80.2778 31.8564C79.8611 31.8564 79.5833 31.7158 79.3056 31.4347C78.75 30.8725 78.75 29.8887 79.3056 29.3265L81.3889 27.2183C81.9445 26.6561 82.9167 26.6561 83.4722 27.2183C84.0278 27.7804 84.0278 28.7643 83.4722 29.3265L81.3889 31.4347C80.9722 31.7158 80.6945 31.8564 80.2778 31.8564Z" fill="url(#paint10_linear)"/>
<path d="M88.0556 43.5219H85.1389C84.3056 43.5219 83.75 42.8192 83.75 42.1164C83.75 41.2731 84.4445 40.7109 85.1389 40.7109H88.0556C88.8889 40.7109 89.4445 41.4137 89.4445 42.1164C89.4445 42.8192 88.75 43.5219 88.0556 43.5219Z" fill="url(#paint11_linear)"/>
<path d="M88.0556 55.4686H85.1389C84.3056 55.4686 83.75 54.7658 83.75 54.0631C83.75 53.2198 84.4445 52.6576 85.1389 52.6576H88.0556C88.8889 52.6576 89.4445 53.3603 89.4445 54.0631C89.4445 54.9064 88.75 55.4686 88.0556 55.4686Z" fill="url(#paint12_linear)"/>
<path d="M82.3611 69.2424C81.9445 69.2424 81.6667 69.1018 81.3889 68.8207L79.3056 66.7125C78.75 66.1503 78.75 65.1665 79.3056 64.6043C79.8611 64.0421 80.8333 64.0421 81.3889 64.6043L83.4722 66.7125C84.0278 67.2747 84.0278 68.2585 83.4722 68.8207C83.0556 69.1018 82.7778 69.2424 82.3611 69.2424Z" fill="url(#paint13_linear)"/>
<path d="M73.8889 77.8158C73.4722 77.8158 73.1945 77.6753 72.9167 77.3942L70.8333 75.286C70.2778 74.7238 70.2778 73.7399 70.8333 73.1777C71.3889 72.6155 72.3611 72.6155 72.9167 73.1777L75 75.286C75.5556 75.8482 75.5556 76.832 75 77.3942C74.7222 77.6753 74.3056 77.8158 73.8889 77.8158Z" fill="url(#paint14_linear)"/>
<path d="M60.4167 83.4378C59.5833 83.4378 59.0278 82.7351 59.0278 82.0323V79.0808C59.0278 78.2375 59.7222 77.6753 60.4167 77.6753C61.25 77.6753 61.8056 78.378 61.8056 79.0808V82.0323C61.8056 82.8756 61.1111 83.4378 60.4167 83.4378Z" fill="url(#paint15_linear)"/>
<path d="M48.4722 83.4378C47.6389 83.4378 47.0833 82.7351 47.0833 82.0323V79.0808C47.0833 78.2375 47.7778 77.6753 48.4722 77.6753C49.3056 77.6753 49.8611 78.378 49.8611 79.0808V82.0323C49.8611 82.8756 49.3056 83.4378 48.4722 83.4378Z" fill="url(#paint16_linear)"/>
<path d="M34.8611 77.8158C34.4444 77.8158 34.1667 77.6753 33.8889 77.3942C33.3333 76.832 33.3333 75.8482 33.8889 75.286L35.9722 73.1777C36.5278 72.6155 37.5 72.6155 38.0556 73.1777C38.6111 73.7399 38.6111 74.7238 38.0556 75.286L35.8333 77.3942C35.5556 77.6753 35.2778 77.8158 34.8611 77.8158Z" fill="url(#paint17_linear)"/>
<path d="M54.4445 84C46.1111 84 37.6389 81.0485 30.9722 75.0049C30.4167 74.4427 30.2778 73.5994 30.8333 72.8966C31.3889 72.3344 32.2222 72.1939 32.9167 72.7561C45.8333 84.2811 65.4167 83.5784 77.6389 71.3506C90.4167 58.4201 90.4167 37.4783 77.6389 24.5478C67.7778 14.5689 52.7778 12.039 40.1389 18.2231C39.4444 18.6448 38.6111 18.2231 38.1944 17.5204C37.9167 16.8176 38.1944 15.9743 38.8889 15.5527C52.5 8.80635 68.8889 11.6173 79.5833 22.4396C93.4722 36.4945 93.4722 59.2634 79.5833 73.3183C72.6389 80.4863 63.4722 84 54.4445 84Z" fill="url(#paint18_linear)"/>
<path d="M17.5 84C14.8611 84 12.3611 82.8756 10.4167 80.9079C8.61111 78.9402 7.63889 76.4104 7.63889 73.5994L10.2778 30.5914C4.16667 27.921 0 21.5963 0 14.5689C0 8.9469 2.5 3.74659 6.94445 0.373418C7.36111 0.0923201 8.05556 -0.0482288 8.47222 0.232869C9.02778 0.513967 9.30556 0.935613 9.30556 1.49781V14.7094L17.5 18.5042L25.6944 14.7094V1.49781C25.6944 1.07616 25.9722 0.513967 26.3889 0.232869C26.8056 -0.0482288 27.2222 -0.0482288 27.7778 0.0923201C27.9167 0.0923201 28.0556 0.232869 28.0556 0.232869C32.5 3.60604 35 8.80635 35 14.4283C35 21.4557 30.8333 27.7805 24.5833 30.5914L27.2222 73.5994C27.3611 76.4104 26.3889 78.9402 24.4444 80.9079C22.6389 82.8756 20.1389 84 17.5 84ZM6.38889 4.87098C4.16667 7.54141 2.91667 10.9146 2.91667 14.5689C2.91667 20.753 6.80556 26.2344 12.5 28.4832C13.0556 28.7643 13.4722 29.3265 13.4722 29.8887L10.6944 73.8805C10.5556 75.7076 11.25 77.5348 12.6389 78.9402C13.8889 80.3457 15.6944 81.0485 17.6389 81.0485C19.5833 81.0485 21.25 80.3457 22.6389 78.9402C23.8889 77.5348 24.5833 75.7076 24.5833 73.8805L21.8056 29.8887C21.8056 29.1859 22.0833 28.6237 22.7778 28.4832C28.4722 26.375 32.3611 20.753 32.3611 14.5689C32.3611 10.9146 31.1111 7.54141 28.75 4.87098V15.6932C28.75 16.2554 28.4722 16.8176 27.9167 16.9582L18.1944 21.4557C17.7778 21.5963 17.3611 21.5963 16.9444 21.4557L7.22222 16.9582C6.66667 16.6771 6.38889 16.2554 6.38889 15.6932V4.87098Z" fill="url(#paint19_linear)"/>
<path d="M18.3333 31.1536H11.9444C11.1111 31.1536 10.5556 30.4509 10.5556 29.7481C10.5556 28.9048 11.25 28.3426 11.9444 28.3426H18.3333C19.1667 28.3426 19.7222 29.0454 19.7222 29.7481C19.7222 30.5914 19.0278 31.1536 18.3333 31.1536Z" fill="url(#paint20_linear)"/>
<path d="M84.1667 84H5C4.16667 84 3.61111 83.2973 3.61111 82.5945C3.61111 81.7512 4.30556 81.189 5 81.189H84.1667C85 81.189 85.5556 81.8918 85.5556 82.5945C85.5556 83.4378 84.8611 84 84.1667 84Z" fill="url(#paint21_linear)"/>
<path d="M15.1389 71.4911C14.3056 71.4911 13.6111 70.7884 13.75 69.9451L15.1389 36.635C15.1389 35.7917 15.8333 35.2295 16.6667 35.2295C17.5 35.2295 18.0556 35.9323 18.0556 36.7756L16.6667 70.0857C16.5278 70.929 15.8333 71.4911 15.1389 71.4911Z" fill="url(#paint22_linear)"/>
<defs>
<linearGradient id="paint0_linear" x1="6.70552e-07" y1="84" x2="90.5419" y2="0.588177" gradientUnits="userSpaceOnUse">
<stop stop-color="#DA505D"/>
<stop offset="1" stop-color="#511A76"/>
</linearGradient>
<linearGradient id="paint1_linear" x1="6.70552e-07" y1="84" x2="90.5419" y2="0.588177" gradientUnits="userSpaceOnUse">
<stop stop-color="#DA505D"/>
<stop offset="1" stop-color="#511A76"/>
</linearGradient>
<linearGradient id="paint2_linear" x1="6.70552e-07" y1="84" x2="90.5419" y2="0.588177" gradientUnits="userSpaceOnUse">
<stop stop-color="#DA505D"/>
<stop offset="1" stop-color="#511A76"/>
</linearGradient>
<linearGradient id="paint3_linear" x1="6.70552e-07" y1="84" x2="90.5419" y2="0.588177" gradientUnits="userSpaceOnUse">
<stop stop-color="#DA505D"/>
<stop offset="1" stop-color="#511A76"/>
</linearGradient>
<linearGradient id="paint4_linear" x1="6.70552e-07" y1="84" x2="90.5419" y2="0.588177" gradientUnits="userSpaceOnUse">
<stop stop-color="#DA505D"/>
<stop offset="1" stop-color="#511A76"/>
</linearGradient>
<linearGradient id="paint5_linear" x1="6.70552e-07" y1="84" x2="90.5419" y2="0.588177" gradientUnits="userSpaceOnUse">
<stop stop-color="#DA505D"/>
<stop offset="1" stop-color="#511A76"/>
</linearGradient>
<linearGradient id="paint6_linear" x1="6.70552e-07" y1="84" x2="90.5419" y2="0.588177" gradientUnits="userSpaceOnUse">
<stop stop-color="#DA505D"/>
<stop offset="1" stop-color="#511A76"/>
</linearGradient>
<linearGradient id="paint7_linear" x1="6.70552e-07" y1="84" x2="90.5419" y2="0.588177" gradientUnits="userSpaceOnUse">
<stop stop-color="#DA505D"/>
<stop offset="1" stop-color="#511A76"/>
</linearGradient>
<linearGradient id="paint8_linear" x1="6.70552e-07" y1="84" x2="90.5419" y2="0.588177" gradientUnits="userSpaceOnUse">
<stop stop-color="#DA505D"/>
<stop offset="1" stop-color="#511A76"/>
</linearGradient>
<linearGradient id="paint9_linear" x1="6.70552e-07" y1="84" x2="90.5419" y2="0.588177" gradientUnits="userSpaceOnUse">
<stop stop-color="#DA505D"/>
<stop offset="1" stop-color="#511A76"/>
</linearGradient>
<linearGradient id="paint10_linear" x1="6.70552e-07" y1="84" x2="90.5419" y2="0.588177" gradientUnits="userSpaceOnUse">
<stop stop-color="#DA505D"/>
<stop offset="1" stop-color="#511A76"/>
</linearGradient>
<linearGradient id="paint11_linear" x1="6.70552e-07" y1="84" x2="90.5419" y2="0.588177" gradientUnits="userSpaceOnUse">
<stop stop-color="#DA505D"/>
<stop offset="1" stop-color="#511A76"/>
</linearGradient>
<linearGradient id="paint12_linear" x1="6.70552e-07" y1="84" x2="90.5419" y2="0.588177" gradientUnits="userSpaceOnUse">
<stop stop-color="#DA505D"/>
<stop offset="1" stop-color="#511A76"/>
</linearGradient>
<linearGradient id="paint13_linear" x1="6.70552e-07" y1="84" x2="90.5419" y2="0.588177" gradientUnits="userSpaceOnUse">
<stop stop-color="#DA505D"/>
<stop offset="1" stop-color="#511A76"/>
</linearGradient>
<linearGradient id="paint14_linear" x1="6.70552e-07" y1="84" x2="90.5419" y2="0.588177" gradientUnits="userSpaceOnUse">
<stop stop-color="#DA505D"/>
<stop offset="1" stop-color="#511A76"/>
</linearGradient>
<linearGradient id="paint15_linear" x1="6.70552e-07" y1="84" x2="90.5419" y2="0.588177" gradientUnits="userSpaceOnUse">
<stop stop-color="#DA505D"/>
<stop offset="1" stop-color="#511A76"/>
</linearGradient>
<linearGradient id="paint16_linear" x1="6.70552e-07" y1="84" x2="90.5419" y2="0.588177" gradientUnits="userSpaceOnUse">
<stop stop-color="#DA505D"/>
<stop offset="1" stop-color="#511A76"/>
</linearGradient>
<linearGradient id="paint17_linear" x1="6.70552e-07" y1="84" x2="90.5419" y2="0.588177" gradientUnits="userSpaceOnUse">
<stop stop-color="#DA505D"/>
<stop offset="1" stop-color="#511A76"/>
</linearGradient>
<linearGradient id="paint18_linear" x1="6.70552e-07" y1="84" x2="90.5419" y2="0.588177" gradientUnits="userSpaceOnUse">
<stop stop-color="#DA505D"/>
<stop offset="1" stop-color="#511A76"/>
</linearGradient>
<linearGradient id="paint19_linear" x1="6.70552e-07" y1="84" x2="90.5419" y2="0.588177" gradientUnits="userSpaceOnUse">
<stop stop-color="#DA505D"/>
<stop offset="1" stop-color="#511A76"/>
</linearGradient>
<linearGradient id="paint20_linear" x1="6.70552e-07" y1="84" x2="90.5419" y2="0.588177" gradientUnits="userSpaceOnUse">
<stop stop-color="#DA505D"/>
<stop offset="1" stop-color="#511A76"/>
</linearGradient>
<linearGradient id="paint21_linear" x1="6.70552e-07" y1="84" x2="90.5419" y2="0.588177" gradientUnits="userSpaceOnUse">
<stop stop-color="#DA505D"/>
<stop offset="1" stop-color="#511A76"/>
</linearGradient>
<linearGradient id="paint22_linear" x1="6.70552e-07" y1="84" x2="90.5419" y2="0.588177" gradientUnits="userSpaceOnUse">
<stop stop-color="#DA505D"/>
<stop offset="1" stop-color="#511A76"/>
</linearGradient>
</defs>
</svg>
