<svg width="90" height="90" viewBox="0 0 90 90" fill="none" xmlns="http://www.w3.org/2000/svg">
<path d="M85.6515 20.2928H62.5915L53.104 2.63543C52.1815 1.05417 50.6003 0 48.7555 0H48.4919C47.1742 0 45.8565 0.527086 45.0659 1.44949C44.1435 0.527086 42.9575 0 41.508 0H41.2445C39.5315 0 37.8184 1.05417 36.896 2.63543L27.4085 20.2928H4.34846C1.97657 20.2928 0 22.2694 0 24.6413V30.4392C0 32.8111 1.97657 34.7877 4.34846 34.7877H85.6515C88.0234 34.7877 90 32.8111 90 30.4392V24.6413C90 22.2694 88.0234 20.2928 85.6515 20.2928ZM48.4919 2.89897H48.7555C49.5461 2.89897 50.205 3.29429 50.6003 3.95315L60.8785 23.06C61.0102 23.3236 61.142 23.7189 61.142 23.9824C61.142 25.1684 60.2196 25.959 59.1654 25.959H58.9019C58.1113 25.959 57.4524 25.5637 57.0571 24.9048L46.7789 5.92972C46.6471 5.66618 46.5154 5.27086 46.5154 5.00732C46.5154 3.82138 47.4378 2.89897 48.4919 2.89897ZM51.1274 20.2928H38.8726L44.9341 8.8287L51.1274 20.2928ZM29.2533 23.1918L39.5315 3.95315C39.9268 3.29429 40.5856 2.89897 41.3763 2.89897H41.6398C42.8258 2.89897 43.6164 3.82138 43.6164 4.87555C43.6164 5.27086 43.4846 5.53441 43.3529 5.79795L33.0747 25.0366C32.6794 25.6955 32.0205 26.0908 31.2299 26.0908H30.9663C29.7804 26.0908 28.9897 25.1684 28.9897 24.1142C28.9897 23.7189 29.1215 23.4553 29.2533 23.1918ZM87.101 30.4392C87.101 31.2299 86.4422 31.8887 85.6515 31.8887H4.34846C3.55783 31.8887 2.89897 31.2299 2.89897 30.4392V24.6413C2.89897 23.8507 3.55783 23.1918 4.34846 23.1918H26.2225C26.2225 23.4553 26.0908 23.7189 26.0908 24.1142C26.0908 26.8814 28.3309 28.9897 30.9663 28.9897H31.2299C33.0747 28.9897 34.7877 27.9356 35.5783 26.3543L37.2914 23.1918H52.7086L54.4217 26.3543C55.3441 27.9356 56.9253 28.9897 58.7701 28.9897H59.0337C61.8009 28.9897 63.9092 26.7496 63.9092 24.1142C63.9092 23.8507 63.9092 23.5871 63.7775 23.1918H85.6515C86.4422 23.1918 87.101 23.8507 87.101 24.6413V30.4392Z" fill="url(#paint0_linear)"/>
<path d="M13.0454 37.8184V63.9092C13.0454 67.0717 15.6808 69.7072 18.8433 69.7072C22.0059 69.7072 24.6413 67.0717 24.6413 63.9092V37.8184H21.7423V63.9092C21.7423 65.4905 20.4246 66.8082 18.8433 66.8082C17.2621 66.8082 15.9444 65.4905 15.9444 63.9092V37.8184H13.0454Z" fill="url(#paint1_linear)"/>
<path d="M33.3382 63.9092V37.8184H30.4392V63.9092C30.4392 66.4129 32.0205 68.5212 34.2606 69.4436L35.183 66.6764C34.1288 66.2811 33.3382 65.0952 33.3382 63.9092Z" fill="url(#paint2_linear)"/>
<path d="M42.1669 37.8184H39.2679V49.4143H42.1669V37.8184Z" fill="url(#paint3_linear)"/>
<path d="M50.8638 37.8184H47.9649V49.4143H50.8638V37.8184Z" fill="url(#paint4_linear)"/>
<path d="M59.5608 37.8184H56.6618V49.4143H59.5608V37.8184Z" fill="url(#paint5_linear)"/>
<path d="M68.2577 37.8184H65.3587V49.4143H68.2577V37.8184Z" fill="url(#paint6_linear)"/>
<path d="M76.9546 37.8184H74.0556V49.4143H76.9546V37.8184Z" fill="url(#paint7_linear)"/>
<path d="M11.0688 73.0015L7.51098 37.5549L4.61201 37.8184L8.16984 73.265C8.56515 76.9546 11.5959 79.8536 15.4173 79.8536H34.7877V76.9546H15.4173C13.1772 76.9546 11.3324 75.2416 11.0688 73.0015Z" fill="url(#paint8_linear)"/>
<path d="M82.5346 37.6265L81.3677 49.2955L84.2521 49.584L85.4191 37.9149L82.5346 37.6265Z" fill="url(#paint9_linear)"/>
<path d="M85.6515 52.3133H42.1669C39.795 52.3133 37.8184 54.2899 37.8184 56.6618V85.6515C37.8184 88.0234 39.795 90 42.1669 90H85.6515C88.0234 90 90 88.0234 90 85.6515V56.6618C90 54.2899 88.0234 52.3133 85.6515 52.3133ZM87.101 85.6515C87.101 86.4422 86.4422 87.101 85.6515 87.101H42.1669C41.3763 87.101 40.7174 86.4422 40.7174 85.6515V66.8082H87.2328V85.6515H87.101ZM40.7174 63.9092V61.0102H87.2328V63.9092H40.7174ZM87.101 58.1113H40.7174V56.6618C40.7174 55.8712 41.3763 55.2123 42.1669 55.2123H85.6515C86.4422 55.2123 87.101 55.8712 87.101 56.6618V58.1113Z" fill="url(#paint10_linear)"/>
<path d="M69.7072 84.202C71.4202 84.202 73.0015 83.4114 74.0556 82.2255C75.1098 83.4114 76.6911 84.202 78.4041 84.202C81.5666 84.202 84.202 81.5666 84.202 78.4041C84.202 75.2416 81.5666 72.6061 78.4041 72.6061C76.6911 72.6061 75.1098 73.3968 74.0556 74.5827C73.0015 73.3968 71.4202 72.6061 69.7072 72.6061C66.5446 72.6061 63.9092 75.2416 63.9092 78.4041C63.9092 81.5666 66.5446 84.202 69.7072 84.202ZM78.4041 75.5051C79.9854 75.5051 81.3031 76.8228 81.3031 78.4041C81.3031 79.9854 79.9854 81.3031 78.4041 81.3031C76.8228 81.3031 75.5051 79.9854 75.5051 78.4041C75.5051 76.8228 76.8228 75.5051 78.4041 75.5051ZM69.7072 75.5051C71.2884 75.5051 72.6061 76.8228 72.6061 78.4041C72.6061 79.9854 71.2884 81.3031 69.7072 81.3031C68.1259 81.3031 66.8082 79.9854 66.8082 78.4041C66.8082 76.8228 68.1259 75.5051 69.7072 75.5051Z" fill="url(#paint11_linear)"/>
<defs>
<linearGradient id="paint0_linear" x1="6.70552e-07" y1="90" x2="96.2362" y2="7.25278" gradientUnits="userSpaceOnUse">
<stop stop-color="#DA505D"/>
<stop offset="1" stop-color="#511A76"/>
</linearGradient>
<linearGradient id="paint1_linear" x1="6.70552e-07" y1="90" x2="96.2362" y2="7.25278" gradientUnits="userSpaceOnUse">
<stop stop-color="#DA505D"/>
<stop offset="1" stop-color="#511A76"/>
</linearGradient>
<linearGradient id="paint2_linear" x1="6.70552e-07" y1="90" x2="96.2362" y2="7.25278" gradientUnits="userSpaceOnUse">
<stop stop-color="#DA505D"/>
<stop offset="1" stop-color="#511A76"/>
</linearGradient>
<linearGradient id="paint3_linear" x1="6.70552e-07" y1="90" x2="96.2362" y2="7.25278" gradientUnits="userSpaceOnUse">
<stop stop-color="#DA505D"/>
<stop offset="1" stop-color="#511A76"/>
</linearGradient>
<linearGradient id="paint4_linear" x1="6.70552e-07" y1="90" x2="96.2362" y2="7.25278" gradientUnits="userSpaceOnUse">
<stop stop-color="#DA505D"/>
<stop offset="1" stop-color="#511A76"/>
</linearGradient>
<linearGradient id="paint5_linear" x1="6.70552e-07" y1="90" x2="96.2362" y2="7.25278" gradientUnits="userSpaceOnUse">
<stop stop-color="#DA505D"/>
<stop offset="1" stop-color="#511A76"/>
</linearGradient>
<linearGradient id="paint6_linear" x1="6.70552e-07" y1="90" x2="96.2362" y2="7.25278" gradientUnits="userSpaceOnUse">
<stop stop-color="#DA505D"/>
<stop offset="1" stop-color="#511A76"/>
</linearGradient>
<linearGradient id="paint7_linear" x1="6.70552e-07" y1="90" x2="96.2362" y2="7.25278" gradientUnits="userSpaceOnUse">
<stop stop-color="#DA505D"/>
<stop offset="1" stop-color="#511A76"/>
</linearGradient>
<linearGradient id="paint8_linear" x1="6.70552e-07" y1="90" x2="96.2362" y2="7.25278" gradientUnits="userSpaceOnUse">
<stop stop-color="#DA505D"/>
<stop offset="1" stop-color="#511A76"/>
</linearGradient>
<linearGradient id="paint9_linear" x1="6.70552e-07" y1="90" x2="96.2362" y2="7.25278" gradientUnits="userSpaceOnUse">
<stop stop-color="#DA505D"/>
<stop offset="1" stop-color="#511A76"/>
</linearGradient>
<linearGradient id="paint10_linear" x1="6.70552e-07" y1="90" x2="96.2362" y2="7.25278" gradientUnits="userSpaceOnUse">
<stop stop-color="#DA505D"/>
<stop offset="1" stop-color="#511A76"/>
</linearGradient>
<linearGradient id="paint11_linear" x1="6.70552e-07" y1="90" x2="96.2362" y2="7.25278" gradientUnits="userSpaceOnUse">
<stop stop-color="#DA505D"/>
<stop offset="1" stop-color="#511A76"/>
</linearGradient>
</defs>
</svg>
