<svg width="90" height="90" viewBox="0 0 90 90" fill="none" xmlns="http://www.w3.org/2000/svg">
<path d="M29.0563 23.7042C28.2958 22.9437 27.1549 22.9437 26.3944 23.7042L19.169 30.6761C18.662 31.1831 18.5352 31.8169 18.662 32.4507C18.7887 33.0845 19.2958 33.5916 19.9296 33.8451C20.5634 33.9718 21.3239 33.8451 21.831 33.338L25.8873 29.4085V42.4648C25.8873 43.4789 26.7746 44.3662 27.7887 44.3662C28.8028 44.3662 29.6901 43.4789 29.6901 42.4648V29.5352L33.7465 33.4648C34.507 34.2253 35.6479 34.0986 36.4085 33.4648C37.169 32.7042 37.169 31.5634 36.4085 30.8028L29.0563 23.7042Z" fill="url(#paint0_linear)"/>
<path d="M26.6479 61.0986H46.169C47.1831 61.0986 48.0704 60.2113 48.0704 59.1972C48.0704 58.1831 47.1831 57.2958 46.169 57.2958H26.6479C25.6338 57.2958 24.7465 58.1831 24.7465 59.1972C24.7465 60.2113 25.6338 61.0986 26.6479 61.0986Z" fill="url(#paint1_linear)"/>
<path d="M24.7465 67.3099C24.7465 68.3239 25.6338 69.2113 26.6479 69.2113H70.7606C71.7747 69.2113 72.662 68.3239 72.662 67.3099C72.662 66.2958 71.7747 65.4084 70.7606 65.4084H26.6479C25.6338 65.4084 24.7465 66.2958 24.7465 67.3099Z" fill="url(#paint2_linear)"/>
<path d="M70.7606 73.5211H26.6479C25.6338 73.5211 24.7465 74.4085 24.7465 75.4225C24.7465 76.4366 25.6338 77.3239 26.6479 77.3239H70.7606C71.7747 77.3239 72.662 76.4366 72.662 75.4225C72.662 74.4085 71.7747 73.5211 70.7606 73.5211Z" fill="url(#paint3_linear)"/>
<path d="M8.77465 50.831H14.7324V80.493C14.7324 85.6901 18.9155 90 24.1127 90H73.169C78.3662 90 82.5493 85.6901 82.5493 80.493V22.6901C82.5493 22.1831 82.4225 21.6761 82.0423 21.4225L61.8873 0.633803C61.6338 0.253521 61.1268 0 60.6197 0H24.1127C18.9155 0 14.7324 4.30986 14.7324 9.50704V16.8592H8.77465C7.76056 16.8592 7 17.7465 7 18.7606V49.0563C7 49.5634 7.12676 50.0704 7.50704 50.3239C7.88732 50.7042 8.26761 50.831 8.77465 50.831ZM62.5211 6.59155L76.2113 20.7887H64.2958C63.7887 20.7887 63.2817 20.5352 63.0282 20.2817C62.6479 19.9014 62.5211 19.3944 62.5211 19.0141V6.59155ZM18.5352 9.50704C18.5352 6.33803 21.0704 3.80282 24.2394 3.80282H58.8451V18.8873C58.8451 20.4085 59.4789 21.8028 60.493 22.8169C61.507 23.831 63.0282 24.4648 64.4225 24.4648H78.8732V80.3662C78.8732 83.5352 76.4648 86.0704 73.2958 86.0704H24.1127C20.9437 86.0704 18.4085 83.5352 18.4085 80.3662V50.831H46.6761C47.6901 50.831 48.7042 50.0704 48.7042 49.0563V18.7606C48.7042 17.7465 47.8169 16.8592 46.6761 16.8592H18.5352V9.50704ZM10.8028 20.662H45.0282V47.1549H10.8028V20.662Z" fill="url(#paint4_linear)"/>
<defs>
<linearGradient id="paint0_linear" x1="7" y1="90" x2="99.3818" y2="23.321" gradientUnits="userSpaceOnUse">
<stop stop-color="#DA505D"/>
<stop offset="1" stop-color="#511A76"/>
</linearGradient>
<linearGradient id="paint1_linear" x1="7" y1="90" x2="99.3818" y2="23.321" gradientUnits="userSpaceOnUse">
<stop stop-color="#DA505D"/>
<stop offset="1" stop-color="#511A76"/>
</linearGradient>
<linearGradient id="paint2_linear" x1="7" y1="90" x2="99.3818" y2="23.321" gradientUnits="userSpaceOnUse">
<stop stop-color="#DA505D"/>
<stop offset="1" stop-color="#511A76"/>
</linearGradient>
<linearGradient id="paint3_linear" x1="7" y1="90" x2="99.3818" y2="23.321" gradientUnits="userSpaceOnUse">
<stop stop-color="#DA505D"/>
<stop offset="1" stop-color="#511A76"/>
</linearGradient>
<linearGradient id="paint4_linear" x1="7" y1="90" x2="99.3818" y2="23.321" gradientUnits="userSpaceOnUse">
<stop stop-color="#DA505D"/>
<stop offset="1" stop-color="#511A76"/>
</linearGradient>
</defs>
</svg>
