<svg width="24" height="20" viewBox="0 0 24 20" fill="none" xmlns="http://www.w3.org/2000/svg">
<path fill-rule="evenodd" clip-rule="evenodd" d="M3.0187 2.17172C2.02541 2.45325 1.2447 3.27469 0.980801 4.31597C0.500648 6.20569 0.50065 10.151 0.50065 10.151C0.50065 10.151 0.500648 14.0962 0.980801 15.986C1.24837 17.0311 2.02907 17.8525 3.0187 18.1302C4.81469 18.6354 12.0206 18.6354 12.0206 18.6354C12.0206 18.6354 19.2229 18.6354 21.0226 18.1302C22.0159 17.8487 22.7966 17.0272 23.0605 15.986C23.5406 14.0962 23.5406 10.151 23.5406 10.151C23.5406 10.151 23.5406 6.20569 23.0605 4.31597C22.7929 3.27084 22.0122 2.44939 21.0226 2.17172C19.2229 1.6665 12.0206 1.6665 12.0206 1.6665C12.0206 1.6665 4.81469 1.6665 3.0187 2.17172ZM8.33712 10.1514L14.3225 13.7881V6.51464L8.33712 10.1514Z" fill="#FF0000"/>
</svg>
